<svg xmlns="http://www.w3.org/2000/svg" viewBox="0 0 47.43 47.43"><defs><style>.cls-1{fill:#222221;}.cls-2{fill:#fff;}</style></defs><title>insta_1</title><g id="Calque_2" data-name="Calque 2"><g id="Capa_1" data-name="Capa 1"><g id="_Groupe_" data-name="&lt;Groupe&gt;"><rect id="_Rectangle_" data-name="&lt;Rectangle&gt;" class="cls-1" width="47.43" height="47.43" rx="8.47" ry="8.47"/><g id="_Groupe_2" data-name="&lt;Groupe&gt;"><path id="_Tracé_transparent_" data-name="&lt;Tracé transparent&gt;" class="cls-2" d="M23.71,13.05c3.47,0,3.88,0,5.25.08a7.19,7.19,0,0,1,2.41.45A4.31,4.31,0,0,1,33.85,16a7.2,7.2,0,0,1,.45,2.41c.06,1.37.08,1.78.08,5.25s0,3.88-.08,5.25a7.19,7.19,0,0,1-.45,2.41,4.3,4.3,0,0,1-2.47,2.47A7.19,7.19,0,0,1,29,34.3c-1.37.06-1.78.08-5.25.08s-3.88,0-5.25-.08A7.19,7.19,0,0,1,16,33.85a4.3,4.3,0,0,1-2.47-2.47A7.2,7.2,0,0,1,13.13,29c-.06-1.37-.08-1.78-.08-5.25s0-3.88.08-5.25A7.2,7.2,0,0,1,13.58,16,4.31,4.31,0,0,1,16,13.58a7.19,7.19,0,0,1,2.41-.45c1.37-.06,1.78-.08,5.25-.08m0-2.34c-3.53,0-4,0-5.36.08a9.55,9.55,0,0,0-3.16.6,6.65,6.65,0,0,0-3.8,3.8,9.54,9.54,0,0,0-.6,3.16c-.06,1.39-.08,1.83-.08,5.36s0,4,.08,5.36a9.54,9.54,0,0,0,.6,3.16A6.65,6.65,0,0,0,15.2,36a9.55,9.55,0,0,0,3.16.6c1.39.06,1.83.08,5.36.08s4,0,5.36-.08a9.55,9.55,0,0,0,3.16-.6,6.65,6.65,0,0,0,3.8-3.8,9.55,9.55,0,0,0,.6-3.16c.06-1.39.08-1.83.08-5.36s0-4-.08-5.36A9.55,9.55,0,0,0,36,15.2a6.65,6.65,0,0,0-3.8-3.8,9.55,9.55,0,0,0-3.16-.6c-1.39-.06-1.83-.08-5.36-.08"/><path id="_Tracé_transparent_2" data-name="&lt;Tracé transparent&gt;" class="cls-2" d="M23.71,17a6.68,6.68,0,1,0,6.68,6.68A6.68,6.68,0,0,0,23.71,17m0,11A4.33,4.33,0,1,1,28,23.71,4.33,4.33,0,0,1,23.71,28"/><path id="_Tracé_" data-name="&lt;Tracé&gt;" class="cls-2" d="M32.21,16.77a1.56,1.56,0,1,1-1.56-1.56,1.56,1.56,0,0,1,1.56,1.56"/></g></g></g></g></svg>