<svg xmlns="http://www.w3.org/2000/svg" viewBox="0 0 47.43 47.43"><defs><style>.cls-1{fill:#9c9b9b;}.cls-2{fill:#fff;}</style></defs><title>twitgrey</title><g id="Calque_2" data-name="Calque 2"><g id="Capa_1" data-name="Capa 1"><g id="_Groupe_" data-name="&lt;Groupe&gt;"><rect id="_Rectangle_" data-name="&lt;Rectangle&gt;" class="cls-1" width="47.43" height="47.43" rx="8.47" ry="8.47"/><path id="_Tracé_" data-name="&lt;Tracé&gt;" class="cls-2" d="M11.08,31.65A14.74,14.74,0,0,0,33.76,18.56a10.52,10.52,0,0,0,2.59-2.68,10.36,10.36,0,0,1-3,.82,5.19,5.19,0,0,0,2.28-2.87,10.39,10.39,0,0,1-3.29,1.26,5.19,5.19,0,0,0-8.83,4.73,14.71,14.71,0,0,1-10.69-5.42,5.19,5.19,0,0,0,1.6,6.92,5.17,5.17,0,0,1-2.35-.65,5.19,5.19,0,0,0,4.16,5.15,5.19,5.19,0,0,1-2.34.09,5.19,5.19,0,0,0,4.84,3.6A10.42,10.42,0,0,1,11.08,31.65Z"/></g></g></g></svg>