<svg xmlns="http://www.w3.org/2000/svg" viewBox="0 0 60.29 38.19"><defs><style>.cls-1{fill:#ecdbba;}</style></defs><title>Fichier 1</title><g id="Calque_2" data-name="Calque 2"><g id="Calque_1-2" data-name="Calque 1"><path class="cls-1" d="M17.81,17.77c-1.61,0-3.28-1.19-3.2-3.8.15-4.56,5.16-5.11,5.13-3.58,0,.52-.29,1.34-.67,1.5-1.89-1-3.46.79-3.51,2.26A2.1,2.1,0,0,0,17.73,16,3,3,0,0,0,20,14.68c-.87-.06-2.33-.21-2.42-.21a2.77,2.77,0,0,1-1.21-1,7.28,7.28,0,0,1,1.58-.3,11.66,11.66,0,0,0-1.75.12c-.08,0-.13,0-.14-.1a21.79,21.79,0,0,1,4.08-.33c.49.06.69,1.1.61,1.58A2.91,2.91,0,0,1,17.81,17.77Z"/><path class="cls-1" d="M25.25,15a3.93,3.93,0,0,1,.49,2.56,3.39,3.39,0,0,0-.42-1.88,6,6,0,0,1,.3,2l-.06-.07s-.14.24-.21.25l-.31.07-.11-.12a6.83,6.83,0,0,0-1.31-2.43,7.83,7.83,0,0,1-1.06.07h-.07c0,.74-.08,1.23-.08,1.23l-.2.33c-.07.11-.24.48-.24.48a.53.53,0,0,0-.23.15s-.1.24-.1.24h-.1l-.14.23s-.08-.06-.11,0-.1.15-.14.15c0-.2-.07-1.58-.12-3.18a2,2,0,0,1-.86-1.15,1.38,1.38,0,0,1,0-.49,2.15,2.15,0,0,0,.36.87,1.92,1.92,0,0,1-.24-1.15,1.29,1.29,0,0,0,.75.56c0-.79-.07-1.56-.11-2.2-.24,0-.48.08-.73.14-.38-.14-.75-1.15-.33-1.54s7-1.92,7,2.68A2.37,2.37,0,0,1,25.25,15Zm-2.59-3.72c0,.12,0,.26,0,.42,0,.75,0,1.55-.1,2.28,1.44,0,3.29-.76,3.34-1.55S24.77,11.17,22.66,11.26Z"/><path class="cls-1" d="M32.07,17.45l-.13.49-.11-.06a13.55,13.55,0,0,0-4.58.42c-.83.27-1.07-.87-.73-1.64,1.25-.73,5-.4,5.38.24,0,0-.06,0-.06,0l.17.2-.11,0S32.09,17.36,32.07,17.45Zm-5.59-2.51a20,20,0,0,0,1.4-5.25,2.79,2.79,0,0,1,1.8.08c.46,0,.9.14,1,.69a26.4,26.4,0,0,0,1.4,5.4s-.19-.19-.19-.19l-.08.13-.13-.08-.11-.06-.13.11s0-.11-.11-.21l-.19.46L31,15.95a8.34,8.34,0,0,0-3.64,0c-.55.1-.77-.33-.76-.84C26.58,15,26.55,14.93,26.48,14.93ZM30,14.26c-.26-.61-.5-1.21-.71-1.79a16.79,16.79,0,0,1-.7,1.55A6.64,6.64,0,0,1,30,14.26Z"/><path class="cls-1" d="M36.39,11.17l-2.68.17,0,1c1-.11,2.08-.15,2.65-.15a.91.91,0,0,1-.1.25l0,.29-.37.2H36l-.38.25v.12l-.43.11-.08.14s-.42.2-.6.27-.45.11-.9.23c-.08,1.37-.17,2.43-.17,2.43l-.08-.1,0,.3-.14,0-.15.45-.35.21-.2.29-.11-.06-.1.31s-.1.14-.14.14c-.07-.37-.11-4.21-.25-6.68l-.14,0,.08-.14-.23-.07-.32-.07.11-.12-.18-.15.19-.17H30.9a.61.61,0,0,1-.09-.21l1-.15a5.32,5.32,0,0,0-.1-.68s0-.15.17-.19a1.3,1.3,0,0,1,1.69.6c1.46-.24,3-.51,3.44-.64C37.22,9.54,37.79,11.17,36.39,11.17Z"/><path class="cls-1" d="M41.61,11.17l-2.68.17,0,1c1-.11,2.08-.15,2.65-.15a.91.91,0,0,1-.1.25l0,.29-.37.2h.14l-.38.25v.12l-.43.11-.08.14s-.42.2-.6.27-.45.11-.9.23c-.08,1.37-.17,2.43-.17,2.43l-.08-.1,0,.3-.14,0-.15.45-.35.21-.2.29-.11-.06-.1.31s-.1.14-.14.14c-.07-.37-.11-4.21-.25-6.68l-.14,0,.08-.14-.23-.07-.32-.07.11-.12-.18-.15.19-.17h-.46A.61.61,0,0,1,36,10.4l1-.15a5.49,5.49,0,0,0-.09-.68s0-.15.17-.19a1.3,1.3,0,0,1,1.69.6c1.46-.24,3-.51,3.44-.64C42.45,9.54,43,11.17,41.61,11.17Z"/><path class="cls-1" d="M46.9,17.45l-.13.49-.11-.06a13.55,13.55,0,0,0-4.58.42c-.83.27-1.07-.87-.73-1.64,1.25-.73,5-.4,5.38.24,0,0-.06,0-.06,0l.17.2-.11,0S46.92,17.36,46.9,17.45ZM41.3,14.93a20,20,0,0,0,1.4-5.25,2.79,2.79,0,0,1,1.8.08c.46,0,.9.14,1,.69a26.4,26.4,0,0,0,1.4,5.4s-.19-.19-.19-.19l-.08.13-.13-.08-.11-.06-.13.11s0-.11-.11-.21L46,16l-.11-.07a8.34,8.34,0,0,0-3.64,0c-.55.1-.77-.33-.76-.84C41.41,15,41.38,14.93,41.3,14.93Zm3.47-.68c-.26-.61-.5-1.21-.71-1.79a16.79,16.79,0,0,1-.7,1.55A6.62,6.62,0,0,1,44.78,14.26Z"/><path class="cls-1" d="M24.64,26.46l-.17.33.07,0a.79.79,0,0,1-.21.14,19.8,19.8,0,0,0-3.83,2.28c-.36.26-1.68-1.64-.94-2a.77.77,0,0,1,.17-.1c.17-2.14.48-6,.07-6.8,0,0,2.12-1,2.12,1.45a25.17,25.17,0,0,1-.56,4.52,7.5,7.5,0,0,1,3.28-.86s-.26.11-.24.15.34.08.36.14-.13.27-.13.27Z"/><path class="cls-1" d="M26.41,22.39c-.09,2.46-.34,5.36-.34,5.36L26,27.64l-.06.3-.14,0-.15.44-.34.2-.2.27-.1-.08-.1.32s-.11.13-.15.13c-.08-.5,0-7.2-.32-8.62,0,0,0-.15.17-.18C25.1,20.33,26.48,20.19,26.41,22.39Z"/><path class="cls-1" d="M31.49,28.09c0,.1-.14.49-.14.49l-.11,0a8.39,8.39,0,0,0-3.61.49c-.83.26-1.06-.88-.73-1.64l.14-.07c0-2.18,0-5.75-.13-6.76,0,0,0-.15.17-.19.54-.13,1.94-.26,1.81,1.92-.11,1.93-.32,3.84-.4,4.69,1.23-.11,2.58.14,2.83.58,0,0-.06,0-.06,0l.15.2-.11,0S31.52,28,31.49,28.09Z"/><path class="cls-1" d="M35.62,28.09c0,.1-.14.49-.14.49l-.11,0a8.39,8.39,0,0,0-3.61.49c-.83.26-1.06-.88-.73-1.64l.14-.07c0-2.18,0-5.75-.13-6.76,0,0,0-.15.17-.19.54-.13,1.94-.26,1.81,1.92-.11,1.93-.32,3.84-.4,4.69,1.23-.11,2.58.14,2.83.58,0,0-.06,0-.06,0l.15.2-.11,0S35.65,28,35.62,28.09Z"/><path class="cls-1" d="M42.1,25.86c0,.08-.23.3-.23.3l-.06.14-.45.21.33,0a2.43,2.43,0,0,0-.52.29c-.2.15-.26.32-.42.38a22.57,22.57,0,0,0-5,1.73c-.37.18-1-1.38-.45-1.69a1.31,1.31,0,0,1,.25-.11,54.39,54.39,0,0,0-.15-6.38,2.23,2.23,0,0,1,.94-.14,44.5,44.5,0,0,1,4.76-.1,1.51,1.51,0,0,0,0,.31,1.29,1.29,0,0,0-.37.26l-.27.2h.24l-.39.2v.14l-.55.23-2.32.37c0,.1,0,.19,0,.29,0,.31,0,.6-.06.88a25.42,25.42,0,0,1,3-.19.91.91,0,0,1-.1.25l0,.29-.37.2h.15l-.39.25v.12l-.43.11-.08.14s-.43.2-.6.26-.73.19-1.32.33c-.06.63-.13,1.12-.18,1.42A12.26,12.26,0,0,1,42.1,25.86Z"/><path class="cls-1" d="M9,1.63a3.73,3.73,0,0,1-.43-.41C8,1,6.94.79,6.68.44a2,2,0,0,1,1-.43c1.55.26,2.22,1,3.91,1.34.15.06.67-.21,1.18-.37L12.48.85A24.37,24.37,0,0,1,15.12.71a1.15,1.15,0,0,1-.29-.17c.68.43,2.14.3,3.2.28a3.13,3.13,0,0,1,.51.17A26.33,26.33,0,0,0,21.61.8c1-.13,2.37.07,3.66,0C27.5.84,30,1.35,32,.71a2.49,2.49,0,0,1,1.54.15c1.27-.71,3.62-.49,5.36-.4A2.09,2.09,0,0,1,40.2,1,33.78,33.78,0,0,1,45.42.44a50.47,50.47,0,0,1,7,.13A4.53,4.53,0,0,0,53.72.4l.45.18a34.18,34.18,0,0,1,4-.2c1.72.21,1.9,1,2.1,1.69-1.84.47-3.64,1.68-6.42,1.17a10.53,10.53,0,0,0-2.9.16c-.82.15-1.72-.21-2.43.23A11,11,0,0,0,43.23,3c-.15-.06,0-.11-.24-.18-2.53.52-5.37.34-8.26.5-1.46.14-3.18-.07-5,.17-.17.05-.93-.13-1.42-.09l-.51.16a19,19,0,0,1-3.64-.14c-1.08-.19-2.05-.1-3-.24-1.4-.2-3.68.09-4.87-.39a5.25,5.25,0,0,0-1,0l-.45-.18c-.32,0-.53.27-.84.27-2.05-.1-4.62,0-5.6-.81C8.65,2,9.31,1.86,9,1.63Z"/><path class="cls-1" d="M.64.21C.73.09.41.07.22.08A1.61,1.61,0,0,0,.86.44L.29.4C0,.67.85.48.51.59S0,.51.1.38C.16.45.29.4.48.43.51.25.2.17,0,.06l.89,0Z"/><path class="cls-1" d="M2.63.52,2.44.5c-.08.11.1.18.27.26-.8-.18,0-.34-.48-.53C2.22.31,2.71.41,2.63.52Z"/><path class="cls-1" d="M1.59,1C1.24.79.89,1,.81.71L1.72,1Z"/><path class="cls-1" d="M7.6.93c.27-.08.13,0,.58,0H7.54Z"/><path class="cls-1" d="M20.37,1.19A3.28,3.28,0,0,0,19.15.84,2.8,2.8,0,0,1,20.37,1.19Z"/><path class="cls-1" d="M26,2.06c0,.09.17.12-.09.16s0-.27-.36-.14Z"/><path class="cls-1" d="M26.49,2.53l.25.16S26.65,2.59,26.49,2.53Z"/><path class="cls-1" d="M11,.3l0,0,.09,0Z"/><path class="cls-1" d="M11.82.45l-.6-.2-.14.05C11.49.37,11.35.53,11.82.45Z"/><path class="cls-1" d="M11.06.44,11,.35C10.47.5,10.25.16,9.5.24A4.83,4.83,0,0,0,11.06.44Z"/><path class="cls-1" d="M10.46.63l-.21.11c-.19,0-.17-.12-.16-.16l-.39,0c-.16.18,1,.23,1.36.26Z"/><path class="cls-1" d="M6.74,2.18h0Z"/><path class="cls-1" d="M7.87,2.64l.05-.32c-.51,0-.6-.19-1.17-.14h0C6.94,2.5,7.47,2.38,7.87,2.64Z"/><path class="cls-1" d="M12.53.79c-.51,0-.89,0-1,.16l.94.09C12.07.89,12.45.9,12.53.79Z"/><path class="cls-1" d="M13.32,1.4h-.45l.2.1S13.17,1.42,13.32,1.4Z"/><path class="cls-1" d="M13.07,1.51s0,.09.21.11Z"/><path class="cls-1" d="M12.17,1.76c.28.21.26,0,.76,0C13,1.55,12.43,1.76,12.17,1.76Z"/><polygon class="cls-1" points="14.26 1.87 14.42 2.03 14.46 1.81 14.26 1.87"/><path class="cls-1" d="M18,.91c-.48.19.28.21.33.33Z"/><path class="cls-1" d="M14.81,2.38l-.16-.21-.08.11a.72.72,0,0,1-.43-.08C14,2.46,14.56,2.33,14.81,2.38Z"/><line class="cls-1" x1="16.75" y1="1.86" x2="17.23" y2="2"/><path class="cls-1" d="M13.66,3.13c0,.09.7.38-.11.29.31,0,.76,0,.48.19.51,0,0-.23.38-.33C14.12,3.41,13.9,3.18,13.66,3.13Z"/><path class="cls-1" d="M14.89,3.34c.25.05.55.13.69,0C15.34,3.37,15.11,3.19,14.89,3.34Z"/><polygon class="cls-1" points="15.12 3.87 14.77 3.68 14.99 3.91 15.12 3.87"/><line class="cls-1" x1="20.11" y1="2.34" x2="20.09" y2="2.05"/><path class="cls-1" d="M16.59,3.88l-.9,0L16.5,4c.49-.13.25-.21-.1-.29C16.5,3.78,16.57,3.82,16.59,3.88Z"/><path class="cls-1" d="M15.63,3.49l-.27.09c0,.05.39.05.74.1C15.87,3.63,15.66,3.57,15.63,3.49Z"/><path class="cls-1" d="M16.11,3.68l.3.07Z"/><path class="cls-1" d="M22.3,2.21l-.82,0A2,2,0,0,0,22.3,2.21Z"/><path class="cls-1" d="M17.24,4.14h.13l0-.23C17.15,4,17.25,4.1,17.24,4.14Z"/><path class="cls-1" d="M18.32,4.58c.23.14.7,0,.9,0a2.7,2.7,0,0,0-1-.2C18.6,4.4,18.33,4.49,18.32,4.58Z"/><path class="cls-1" d="M19.41,4.87l-.76,0C18.8,5.11,19.09,4.89,19.41,4.87Z"/><path class="cls-1" d="M20.64,4.79c.07,0,0-.09.15-.13-.11-.09-.37-.05-.56-.08Z"/><path class="cls-1" d="M14.09,2.48l.64,0-.93-.15A1.61,1.61,0,0,0,14.09,2.48Z"/><path class="cls-1" d="M56.17,0a15.36,15.36,0,0,1-3.78.53c-1.65,0-3.7.4-5.63.49l0-.09c-1.51-.12-3.46.11-5.12.11l.09.12c.28,0,.65,0,.43.18a3.55,3.55,0,0,1-1-.2l-.29.18c-.24-.1,0-.5-.7-.38-.39.42-1.48-.31-1.5.22-.26-.31-.88,0-1.21-.06l.22.24A9.7,9.7,0,0,0,36.06,1c-.84.05-2,.07-2.9.19-.21-.28,1,0,.37-.29-1.75.51-4.17-.23-6.26,0,.06,0,.25.05.11.09-.41-.21-1,0-1.64-.13.1.18,1,.2,1.3.23-.21.45-.17-.12-1,0,.06,0,.18.07.17.12-.85.1-.33-.28-1-.2l.36.14c-.64,0-.2.06-.92.16.11-.25-.24-.44-.43-.46s-.77,0-.68.26c-.87-.5-1.11.14-1.92-.34-.35.2.34.24.31.42-.85.14-.27-.26-.58-.33a4.16,4.16,0,0,1-1.85,0l0,.18a10.63,10.63,0,0,1-2.21-.5c-.3.27.27.26.78.27.1.14-.42.22-.67.17.13,0,.17.12.31,0,0,.16-.33.06-.47.1-.88-.06.34-.11,0-.2-.33.06-1.15,0-.81.25-.7,0-.27-.26-.64-.36.54.17.73-.19,1.14,0C17,.75,17,.68,16.8.61c-.58.06-1.7-.15-1.68.1L14.83.54l-.29.18-.12,0c.27.26.83.38,1,.61,0,.11-.33.06-.53.08l-.15-.21c-.5-.06-.38.38-1.07.29.43-.26-.76-.4-1.24-.6-.53.47.06.37-.39.76a8.93,8.93,0,0,1-1.91,0c1.46,0-.71-.33.47-.49a3.64,3.64,0,0,0-.7,0c-.19-.37.37-.29,0-.57L9.88.77A2.63,2.63,0,0,0,8.64.22a.83.83,0,0,1-.73.19C7.81.23,7.76.16,7.12.14,5.89.62,8.35.78,8.59,1.22c1.76.13,1.82,1.27,4,1.52a1.69,1.69,0,0,1,.88-.28c.45-.4-1-.34-1.36-.6a.89.89,0,0,1,.58-.06l-.21-.28c1-.11.56.42,1.48.31l-.2.06.52-.08-.12,0c.32,0,.42-.22.91-.12l-.41.17c.28-.13.35.19.75.11-.22.1-.29.24-.42.24a10.2,10.2,0,0,0,1.62.2,23.67,23.67,0,0,1,5.09.22l-.2-.09a.78.78,0,0,1,.66.16l.93.15a18.54,18.54,0,0,1,2.06-.05c0,.14,0,.18-.12.19.3,0,.48-.07.19-.21a7.54,7.54,0,0,1,1.13.12l-.87.23c.37.1.35-.2.85-.1.78-.07-.34-.23-.24-.44l.31,0-.33-.28a3,3,0,0,1,1.32.48l-.49-.1c-.18.31.82,0,1,.23l-.07,0c.76,0-.16-.16.35-.2l.91.27L29,2.81a13.11,13.11,0,0,1,2.44.26,14.3,14.3,0,0,0,1.81-.14c-.12,0-.37-.1-.29-.17.38,0,1.21,0,.92.23l.54-.17a1.2,1.2,0,0,1,.47.08l-.15-.09.65-.08s.23.14-.09.16c.72.24,1.63-.21,2.76-.1l-.34.11c.67-.17.73.2,1.46.06L39,2.78c.52-.08,1.51.12,1.36.26.07-.41.3.12.62-.24l.32.37c.34-.11.67-.17.44-.35a1.33,1.33,0,0,0,1.26,0h0c.12,0,.63,0,.4-.13,1.21,0,.64.35,1.79.33l0-.27a7.67,7.67,0,0,0,2.42-.33l.09.23c.46-.06-.09-.23.62-.28.1,0,.19.11.17.17.69,0,1.6.12,2.64.14,0,0-.14.09-.21.11a16.8,16.8,0,0,0,1.69-.19,13.68,13.68,0,0,0,4.52.58c1.23-.56,2-1.21,2.15-1.86A6.87,6.87,0,0,0,56.17,0Z"/><path class="cls-1" d="M58.43,37.44c-1.52-.21-1-.66-1.6-1l.77-.12c1,.15,2.58.42,2.28.73A3,3,0,0,1,58.43,37.44Z"/><path class="cls-1" d="M60.18,36.05c-.14,0-.17,0-.31,0l.41-.37Z"/><path class="cls-1" d="M55.7,36.64l-.72,0c-.17,0,.24-.11.22-.16l-.81-.16C55.49,36.51,55.47,36.15,55.7,36.64Z"/><path class="cls-1" d="M46.24,34.64c-.54-.22.42-.37.64-.54.45,0,.85.25.49.43A6.43,6.43,0,0,0,46.24,34.64Z"/><path class="cls-1" d="M51.49,36.77c.27-.37,1.84-.15,1.69-.49a.67.67,0,0,0-.33-.38l-.79.19c-2-.14.82-.45-.51-.78a1.53,1.53,0,0,0-.55.08c-.65.19-.46.28-.08.46-1.89.05-1.17-.94-2.2-.94-1.41.13-.54.73-.88,1,0-.6-2.55-1.07-4.63-1.11-1.94.26-4.13-.33-6.46,0-1-.08-2.29-.21-3.6-.26,0,0,0-.06,0-.09a.12.12,0,0,0-.05.09c-1-.44-3.2.2-3.43-.49l-.23.06c-1.16,0,0-.25-.67-.39-1.08.09-2.5-.48-3.05.1-.09,0,0-.07-.06-.11l-.87.1c-.06.14-.23.31-.09.46-.2,0-.38.16-.67.11-.73,0-.09-.29-.35-.41a23.49,23.49,0,0,1-5.67-.1c0-.5-2-.42-2.85-.39-1.69-.44-3.63.49-4.91.08.76-.32,2.06,0,2.21-.32l-.35-.16c-.79-.11-2-.35-2.5,0a1.38,1.38,0,0,1,.61.53c-.35.09-.41.23-.84.28-.64,0-1.34,0-1.34-.28a5.36,5.36,0,0,1,1,0c.12-.28-1-.3-1.4-.39.67.63-1.11.9.7,1.31l-1,.13c-.76.57,3.2.55,1.48,1.17-.17.17.06.36-.52.51a1.47,1.47,0,0,0,1.22.06c.44.45,2.47,0,2.53.65,1.66-.49,2.44.37,4,.48,1.92.13.67-.36,1.22-.68a5.64,5.64,0,0,0,2.5-.27c.52,0,.84.22.49.31a94.8,94.8,0,0,0,11.83.76c1.6.4,3.08-.17,4.65.55l-.26-.12c0-.07.16-.1.32-.13l-.75-.39a10.9,10.9,0,0,0,1.4.08c.51-.48,2.65,0,3.31-.48,2.58.16,1.5.37,4.1.58a28.89,28.89,0,0,1,4.69-.35c.6,0,1.14.24,1,.35.72,0,1.74,0,2.49,0C56.26,37.22,52.68,36.81,51.49,36.77Z"/><path class="cls-1" d="M20,33.22c.12-.28-.67-.39-.93-.51l-.35.09c-.87.1-.9.42-.35.58C18.62,33.15,19.55,33.16,20,33.22Z"/><path class="cls-1" d="M27.08,33l-.12.28L28,33.22C28,33,27.49,33.06,27.08,33Z"/><path class="cls-1" d="M4.48,35.15a14.69,14.69,0,0,0,2.5.23l-.2-.51a14.85,14.85,0,0,0-3.4-.56C2.54,34.85,4.89,34.68,4.48,35.15Z"/><path class="cls-1" d="M6.69,36.08c-1.86.48-4-.27-5.61.5.43,1.19,3.14-.06,4.33.32.79-.14,1.25-.26,2.24-.39C8.38,36.27,7.19,36.14,6.69,36.08Z"/><path class="cls-1" d="M.59,36a2,2,0,0,0-.55.08c-.14.1.23.19.41.27S1.17,36.13.59,36Z"/></g></g></svg>