<svg xmlns="http://www.w3.org/2000/svg" viewBox="0 0 241.94 256.32"><defs><style>.cls-1,.cls-3{fill:#282828;}.cls-2{fill:#489bb5;}.cls-3{stroke:#489bb5;stroke-miterlimit:10;stroke-width:0.5px;}</style></defs><title>graffalogo</title><g id="Calque_2" data-name="Calque 2"><g id="Calque_2-2" data-name="Calque 2"><path class="cls-1" d="M59.66,123.51c-8.1,0-16.57-6-16.15-19.16.78-23,26.06-25.76,25.89-18.08-.06,2.64-1.44,6.79-3.37,7.57-9.55-4.87-17.47,4-17.71,11.41-.18,3.78,4.44,9.13,10.93,9.13,5,0,9.31-3.3,11.65-6.43-4.38-.3-11.77-1.08-12.19-1.08-2.46-.72-4.62-3.12-6.13-5-.18-.18,2.58-.72,8-1.5a58.81,58.81,0,0,0-8.83.6c-.42-.12-.66-.24-.72-.48,4-.48,15.37-2.4,20.6-1.68,2.46.3,3.48,5.53,3.06,8C75.64,116.07,69.15,123.51,59.66,123.51Z"/><path class="cls-1" d="M97.2,109.46c2.28,4.14,3.3,9.25,2.46,12.91a17.11,17.11,0,0,0-2.1-9.49s2.28,7.69,1.5,10.21c-.12-.12-.3-.36-.3-.36s-.72,1.2-1.08,1.26-1.56.36-1.56.36l-.54-.6c-1.2-4.68-4-8.89-6.61-12.25a39.51,39.51,0,0,1-5.35.36h-.36c-.24,3.72-.42,6.19-.42,6.19s-.42.72-1,1.68c-.36.54-1.2,2.4-1.2,2.4a2.7,2.7,0,0,0-1.14.78c-.12.18-.48,1.2-.48,1.2l-.48-.06-.72,1.14s-.42-.3-.54-.24c-.3.12-.48.78-.72.78-.18-1-.36-8-.6-16a9.91,9.91,0,0,1-4.32-5.82,7,7,0,0,1-.24-2.46,10.85,10.85,0,0,0,1.8,4.38A9.7,9.7,0,0,1,72,100c.3.9,1.68,2,3.78,2.82-.18-4-.36-7.87-.54-11.11-1.2.18-2.4.42-3.66.72-1.92-.72-3.78-5.82-1.68-7.75S105.42,75,105.25,98.17C105.19,104.18,101.58,107.54,97.2,109.46ZM84.11,90.66c.06.6.06,1.32.06,2.1-.06,3.78-.24,7.81-.48,11.53,7.27-.06,16.58-3.84,16.88-7.81C100.8,93.13,94.8,90.24,84.11,90.66Z"/><path class="cls-1" d="M131.61,121.89c-.12.42-.66,2.46-.66,2.46l-.54-.3c-6.42-.9-18.14.48-23.12,2.1-4.2,1.38-5.41-4.38-3.67-8.29,6.31-3.66,25.29-2,27.14,1.2.12.12-.3-.06-.3-.06l.84,1-.54.12S131.73,121.47,131.61,121.89Zm-28.22-12.67a100.75,100.75,0,0,0,7.08-26.48c4.92-.72,7.69-.54,9.07.42,2.34-.06,4.57.72,5,3.48a133.22,133.22,0,0,0,7.08,27.26c-.06,0-1-1-1-1l-.42.66-.66-.42-.54-.3-.66.54s-.24-.54-.54-1.08c-.18.48-1,2.34-1,2.34l-.54-.36c-6.18-1.74-13.21-1-18.38,0-2.76.48-3.9-1.68-3.84-4.26C103.93,109.64,103.75,109.22,103.39,109.22Zm17.54-3.42c-1.32-3.06-2.53-6.13-3.61-9a84.74,84.74,0,0,1-3.54,7.81A33.49,33.49,0,0,1,120.92,105.8Z"/><path class="cls-1" d="M153.41,90.24c-.3,0-7.51.48-13.51.84q-.09,2.52-.18,5c4.92-.54,10.51-.78,13.39-.78a4.6,4.6,0,0,1-.48,1.26l-.18,1.44-1.86,1,.72.06-1.92,1.26.06.6-2.16.54-.42.72s-2.1,1-3,1.38c-.24,0-2.28.54-4.56,1.14-.42,6.91-.84,12.25-.84,12.25l-.42-.48-.24,1.5-.72.18-.78,2.28-1.74,1.08-1,1.44-.54-.3-.48,1.56s-.48.72-.72.72c-.36-1.86-.54-21.26-1.26-33.69l-.72-.18.42-.72-1.14-.36-1.62-.36.54-.6-.9-.78,1-.84-2.34-.06a3.1,3.1,0,0,1-.48-1.08c.48-.06,2.28-.36,4.86-.78a26.86,26.86,0,0,0-.48-3.42c-.06-.24.24-.78.84-1,2-.6,6.54-1.44,8.53,3,7.39-1.2,15.37-2.58,17.35-3.24C157.61,82,160.5,90.24,153.41,90.24Z"/><path class="cls-1" d="M179.77,90.24c-.3,0-7.51.48-13.51.84q-.09,2.52-.18,5c4.92-.54,10.51-.78,13.39-.78a4.6,4.6,0,0,1-.48,1.26l-.18,1.44-1.86,1,.72.06-1.92,1.26.06.6-2.16.54-.42.72s-2.1,1-3,1.38c-.24,0-2.28.54-4.56,1.14-.42,6.91-.84,12.25-.84,12.25l-.42-.48-.24,1.5-.72.18-.78,2.28-1.74,1.08-1,1.44-.54-.3-.48,1.56s-.48.72-.72.72c-.36-1.86-.54-21.26-1.26-33.69l-.72-.18.42-.72-1.14-.36-1.62-.36.54-.6-.9-.78,1-.84-2.34-.06a3.1,3.1,0,0,1-.48-1.08c.48-.06,2.28-.36,4.86-.78a27.72,27.72,0,0,0-.48-3.42c-.06-.24.24-.78.84-1,2-.6,6.54-1.44,8.53,3,7.39-1.2,15.37-2.58,17.35-3.24C184,82,186.86,90.24,179.77,90.24Z"/><path class="cls-1" d="M206.44,121.89c-.12.42-.66,2.46-.66,2.46l-.54-.3c-6.42-.9-18.14.48-23.12,2.1-4.2,1.38-5.41-4.38-3.66-8.29,6.3-3.66,25.28-2,27.14,1.2.12.12-.3-.06-.3-.06l.84,1-.54.12S206.56,121.47,206.44,121.89Zm-28.22-12.67a100.75,100.75,0,0,0,7.08-26.48c4.92-.72,7.69-.54,9.07.42,2.34-.06,4.57.72,5,3.48a133.22,133.22,0,0,0,7.08,27.26c-.06,0-1-1-1-1l-.42.66-.66-.42-.54-.3-.66.54s-.24-.54-.54-1.08c-.18.48-1,2.34-1,2.34l-.54-.36c-6.18-1.74-13.21-1-18.38,0-2.76.48-3.9-1.68-3.84-4.26C178.75,109.64,178.57,109.22,178.21,109.22Zm17.53-3.42c-1.32-3.06-2.52-6.13-3.6-9a84.74,84.74,0,0,1-3.54,7.81A33.41,33.41,0,0,1,195.75,105.8Z"/><path class="cls-1" d="M94.12,167.4l-.84,1.68.36.18a4,4,0,0,1-1.08.72c-.54,0-10.09,4.62-19.34,11.53-1.8,1.32-8.47-8.29-4.74-10.27a3.88,3.88,0,0,1,.84-.48c.84-10.81,2.4-30.21.36-34.29,0,0,10.69-5.1,10.69,7.33,0,7.39-1.56,16.57-2.82,22.82,5.4-2.46,11.65-4.69,16.57-4.32.12.18-1.32.54-1.2.78s1.74.42,1.8.72-.66,1.38-.66,1.38Z"/><path class="cls-1" d="M103.07,146.86c-.48,12.43-1.74,27-1.74,27l-.42-.54-.3,1.5-.72.18-.78,2.22-1.74,1-1,1.38-.48-.42-.48,1.62s-.54.66-.78.66C94.18,179,94.36,145.18,93,138c-.06-.24.24-.78.84-.9C96.46,136.47,103.43,135.75,103.07,146.86Z"/><path class="cls-1" d="M128.71,175.62c-.18.48-.72,2.46-.72,2.46l-.54-.24c-6.36-.9-13.21.84-18.19,2.46-4.2,1.32-5.35-4.44-3.66-8.29l.72-.36c.06-11,.24-29-.66-34.11-.06-.24.24-.78.84-1,2.7-.66,9.79-1.32,9.13,9.67-.54,9.73-1.62,19.4-2,23.66,6.18-.54,13,.72,14.29,2.94.06.12-.3-.06-.3-.06l.78,1-.54.12S128.83,175.26,128.71,175.62Z"/><path class="cls-1" d="M149.55,175.62c-.18.48-.72,2.46-.72,2.46l-.54-.24c-6.36-.9-13.21.84-18.19,2.46-4.2,1.32-5.35-4.44-3.66-8.29l.72-.36c.06-11,.24-29-.66-34.11-.06-.24.24-.78.84-1,2.7-.66,9.79-1.32,9.13,9.67-.54,9.73-1.62,19.4-2,23.66,6.18-.54,13,.72,14.29,2.94.06.12-.3-.06-.3-.06l.78,1-.54.12S149.67,175.26,149.55,175.62Z"/><path class="cls-1" d="M182.22,164.33c0,.42-1.14,1.5-1.14,1.5l-.3.72-2.28,1.08,1.68.18a12.26,12.26,0,0,0-2.64,1.44c-1,.78-1.32,1.62-2.1,1.92a113.92,113.92,0,0,0-25.4,8.71c-1.86.9-5.28-7-2.28-8.53a6.63,6.63,0,0,1,1.26-.54c0-10.27.3-28.34-.78-32.19a11.25,11.25,0,0,1,4.74-.72c6.36-.84,20.12-.54,24-.48a7.63,7.63,0,0,0-.06,1.56,6.5,6.5,0,0,0-1.86,1.32c-.18.18-1.38,1-1.38,1l1.2.06-2,1-.06.72s-2.4,1-2.76,1.14-6.42,1-11.71,1.86c0,.48-.06,1-.06,1.44-.06,1.56-.18,3-.3,4.44a128.29,128.29,0,0,1,15.07-1,4.57,4.57,0,0,1-.48,1.26l-.24,1.44-1.86,1,.78.06-2,1.26.06.6-2.16.54-.42.72s-2.16,1-3,1.32c-.36,0-3.66,1-6.66,1.68-.3,3.18-.66,5.64-.9,7.15C164.32,165.47,175.31,163,182.22,164.33Z"/><path class="cls-2" d="M59.56,124a16.31,16.31,0,0,1-11.69-4.86c-3.45-3.56-5.17-8.68-5-14.82C43.42,88.75,55,81.92,63.24,81.92h.42c3.78.11,6.19,1.82,6.13,4.36-.07,2.75-1.5,7.14-3.68,8l-.21.09-.21-.1a10.42,10.42,0,0,0-10.48.12,13.8,13.8,0,0,0-6.5,10.85A7.45,7.45,0,0,0,51,110.41a11.23,11.23,0,0,0,8.09,3.47c4.46,0,8.31-2.71,10.66-5.49-2.7-.2-6.12-.53-8.48-.76-1.38-.13-2.56-.25-2.71-.25l-.14,0c-2.68-.79-4.92-3.35-6.38-5.22l-.17-.22.08-.28a.43.43,0,0,1,.22-.28h-.07l-.51.06-.14,0c-.32-.09-.93-.27-1.07-.84l-.14-.56.57-.07c.76-.09,1.78-.23,3-.4,5-.7,13.45-1.87,17.75-1.28a2.87,2.87,0,0,1,1.94,1.27,11.32,11.32,0,0,1,1.56,7.24A15.71,15.71,0,0,1,71.28,119,15.51,15.51,0,0,1,59.56,124Zm3.68-41.08c-7.86,0-18.83,6.53-19.33,21.44-.19,5.86,1.43,10.73,4.68,14.09a15.31,15.31,0,0,0,11,4.55,14.52,14.52,0,0,0,11-4.64,14.74,14.74,0,0,0,3.54-11.56v-.14a10.3,10.3,0,0,0-1.37-6.53,1.93,1.93,0,0,0-1.26-.87c-2.8-.39-7.52,0-11.82.53l.86,0,0,1c-4.57.66-6.46,1-7.24,1.22,2,2.41,3.74,3.82,5.39,4.33.29,0,1.11.09,2.73.25,2.64.25,6.64.64,9.42.83l.93.06-.56.74c-2.4,3.21-6.83,6.63-12.05,6.63a12.24,12.24,0,0,1-8.82-3.78,8.45,8.45,0,0,1-2.62-5.87,14.85,14.85,0,0,1,7-11.68,11.47,11.47,0,0,1,11.23-.27c1.49-.86,2.8-4.46,2.86-7,.06-2.34-2.62-3.25-5.15-3.33Z"/><path class="cls-2" d="M76.43,126.24H76l-.07-.42c-.16-.92-.31-5.92-.51-12.86l-.09-3A10.55,10.55,0,0,1,71,104a6.91,6.91,0,0,1-.25-2.72h.5a5.47,5.47,0,0,1,.11-1.45l.4-1.76.57,1.72c.18.53,1,1.38,2.76,2.2-.16-3.46-.32-6.84-.47-9.74-1,.16-2,.36-3.07.63l-.15,0-.15-.05c-1.39-.52-2.46-2.6-2.81-4.39a4.43,4.43,0,0,1,1-4.21c1.48-1.39,16.89-5.36,27.18-.87,6,2.64,9.09,7.61,9,14.76-.05,5.22-2.69,9.1-7.85,11.52,2.2,4.23,3.08,9.19,2.25,12.79l-.46-.07a4,4,0,0,1-.15.83l-.25.81-.47-.48c-.4.56-.76.87-1.06.92s-1.52.35-1.52.35l-.3.07-.86-1c-1-3.7-3-7.57-6.34-11.84a40.56,40.56,0,0,1-5,.33c-.22,3.46-.39,5.72-.39,5.72l-.07.22s-.42.73-1,1.69A25.92,25.92,0,0,0,81,122.34l-.09.2-.21.07a2.18,2.18,0,0,0-.9.61c0,.07-.24.62-.4,1.06l-.14.38-.56-.07-.83,1.32-.43-.31-.12-.08-.07.12C77,125.9,76.83,126.24,76.43,126.24ZM72.95,106a9,9,0,0,0,3.15,3.26l.23.14.1,3.52c.15,5,.28,9.54.4,11.62l.13-.07a.65.65,0,0,1,.56,0l.63-1,.4,0a6.87,6.87,0,0,1,.4-.93,3.11,3.11,0,0,1,1.19-.9,24,24,0,0,1,1.16-2.29c.45-.73.81-1.33.94-1.55,0-.53.2-2.82.41-6.06l0-.47h.83a39,39,0,0,0,5.28-.36l.29,0,.18.23c3.46,4.42,5.65,8.45,6.66,12.32l.26.29c.39-.09,1-.25,1.3-.3a7.39,7.39,0,0,0,.73-1l.39-.64h0A38.36,38.36,0,0,0,97,113l.91-.41s.14.22.31.54a22.82,22.82,0,0,0-1.53-3.45l-.27-.48.51-.22c5.09-2.23,7.69-5.88,7.74-10.83.05-6.71-2.79-11.36-8.43-13.82-9.73-4.24-24.73-.6-26.09.69a3.49,3.49,0,0,0-.66,3.28,5.54,5.54,0,0,0,2,3.57c1.27-.3,2.43-.52,3.54-.69l.55-.08,0,.55c.18,3.24.36,7.15.54,11.12l0,.78-.73-.29a10.45,10.45,0,0,1-3.17-1.87,11.17,11.17,0,0,0,1.24,4.18ZM83,104.8l0-.54c.26-4,.43-8,.48-11.5,0-.75,0-1.47-.06-2l-.06-.53.54,0c7.47-.28,13.39,1,15.83,3.55A3.67,3.67,0,0,1,101,96.52c-.33,4.31-10,8.21-17.38,8.28Zm1.5-13.65c0,.5,0,1,0,1.62-.05,3.38-.21,7.17-.45,11,7.41-.23,15.58-4,15.83-7.33a2.65,2.65,0,0,0-.86-2C97.39,92.66,92.63,90.9,84.54,91.15Z"/><path class="cls-2" d="M106,126.86a3.15,3.15,0,0,1-2.41-1.07c-1.56-1.72-1.78-5.29-.52-8.13l.07-.15.14-.08c5.09-3,17.59-2.48,23.61-.86,2.25.6,3.65,1.34,4.18,2.18l.25.25-.12.22.92,1.12-.62.14A2.2,2.2,0,0,1,132,122h0c-.12.42-.66,2.45-.66,2.46l-.17.63-1-.57c-6.23-.84-17.71.44-22.8,2.09A4.32,4.32,0,0,1,106,126.86Zm-2.07-8.64c-1,2.43-.85,5.5.41,6.89a2.37,2.37,0,0,0,2.7.56c5.22-1.7,17-3,23.35-2.12l.15,0c.17-.61.4-1.5.49-1.81a5.12,5.12,0,0,0-.75-1.34l-.45-.62.49-.11-.32-.38.13-.18c-.31-.36-1.16-1-3.49-1.61C120,115.77,108.5,115.69,103.91,118.22ZM127,115.44l-1-.65c-4.83-1.35-10.74-1.34-18.07,0a3.55,3.55,0,0,1-3-.69,5,5,0,0,1-1.42-4,1.47,1.47,0,0,0-.25-.44h-.75l.32-.68a100.33,100.33,0,0,0,7.05-26.35l0-.38.38-.06c4.83-.71,7.71-.58,9.29.41h.1c3,0,4.85,1.38,5.24,3.91A133.06,133.06,0,0,0,132,113.72l.26.68h-.73c-.2,0-.26,0-.88-.65l-.34.54-1.3-.81-.91.74-.27-.61,0-.06-.55,1.31Zm-9-2.66a30.77,30.77,0,0,1,8.38,1.06l.17.08c.24-.58.6-1.45.72-1.76l.39-1,.53,1c.1.18.19.36.28.53l.43-.35,1.1.63.4-.62a134,134,0,0,1-6.45-25.57c-.32-2.09-1.8-3.1-4.47-3h-.17l-.13-.09c-1.27-.88-3.91-1-8.33-.39A101,101,0,0,1,103.92,109a2.54,2.54,0,0,1,.54.89l0,.1v.11a4.19,4.19,0,0,0,1.07,3.29,2.52,2.52,0,0,0,2.18.46A56.13,56.13,0,0,1,118,112.78Zm3.72-6.21-1-.28a32.9,32.9,0,0,0-7-1.18l-.78,0,.36-.7a85,85,0,0,0,3.52-7.76l.48-1.23.46,1.23c1.25,3.34,2.43,6.28,3.6,9Zm-7.24-2.43a34,34,0,0,1,5.48.91c-.9-2.12-1.8-4.38-2.75-6.87C116.39,100.13,115.49,102.09,114.46,104.14Z"/><path class="cls-2" d="M131.68,125.52h-.42l-.08-.41c-.18-.92-.3-5.53-.47-11.92-.18-6.69-.41-15-.77-21.47l-1-.25.44-.76-.54-.17L126.41,90l.77-.86-1-.82.42-.37-1.31,0-.15-.22a3.09,3.09,0,0,1-.56-1.36v-.44l.44-.06c.36,0,1.5-.23,3.17-.51l1.21-.2a25,25,0,0,0-.43-2.89,1.52,1.52,0,0,1,1.19-1.55c2-.6,6.74-1.48,9,2.93,9.5-1.55,15.34-2.64,16.9-3.16l.27-.09.22.19c1,.83,2.5,4.74,1.51,7.42-.47,1.26-1.68,2.77-4.78,2.77h0l-4.14.26-8.89.56-.15,4c4.56-.47,9.86-.72,12.87-.72h.51v.51a4,4,0,0,1-.5,1.41l-.2,1.6-.62.34.51,0-2.89,1.9.08.73-2.38.6-.39.67-.14.07c-.09,0-2.13,1-3,1.4l-.19,0c-.26,0-2.26.55-4,1h0c-.41,6.66-.81,11.84-.82,11.9l-.09,1.19-.51-.57-.12.77-.77.2-.75,2.19L134.8,122l-1.22,1.73-.39-.22-.36,1.1C132.2,125.52,131.82,125.52,131.68,125.52Zm-.15-1Zm-1.06-33.72.43.11,0,.37c.38,6.55.61,15,.79,21.87.12,4.48.23,8.49.35,10.51l.52-1.68.69.38.9-1.21,1.59-1,.81-2.37.66-.16.36-2.23.34.38c.15-2,.45-6.12.75-11l0-.36.75-.2c2.77-.73,3.79-1,4.17-1,.77-.31,2.3-1,2.77-1.27l.45-.77,1.94-.49,0-.47,1-.63-.93-.08,3.11-1.7.2-1.36c.09-.17.18-.35.25-.51-3.2,0-8.34.3-12.66.77l-.58.07.22-6.09.46,0L149.1,90l4.2-.26c2,0,3.31-.71,3.83-2.11.79-2.14-.35-5.19-1-6.11-2,.58-7.76,1.64-17.12,3.17l-.39.06-.16-.36c-1.76-3.93-5.72-3.4-7.92-2.72a.74.74,0,0,0-.49.43,26,26,0,0,1,.49,3.43l0,.47-2.13.35-2.6.42.09.17,3.37.08-1.5,1.31.86.74-.31.34.78.17,1.79.56Z"/><path class="cls-2" d="M158,125.52h-.42l-.08-.41c-.18-.92-.3-5.53-.47-11.92-.18-6.69-.41-15-.77-21.47l-1-.25.44-.76-.54-.17L152.77,90l.77-.86-1-.82.42-.37-1.31,0-.15-.22a3.09,3.09,0,0,1-.56-1.36v-.44l.44-.06c.36,0,1.5-.23,3.17-.51l1.21-.2a27.49,27.49,0,0,0-.43-2.9,1.51,1.51,0,0,1,1.19-1.55c2-.6,6.74-1.48,9,2.93,9.5-1.55,15.34-2.64,16.9-3.16l.27-.09.22.19c1,.83,2.5,4.74,1.51,7.42-.47,1.26-1.68,2.77-4.78,2.77h0l-4.14.26-8.89.56-.15,4c4.56-.47,9.86-.72,12.87-.72h.51v.51a4,4,0,0,1-.5,1.41l-.2,1.6-.62.34.51,0-2.89,1.9.08.73-2.38.6-.39.67-.14.07c-.09,0-2.13,1-3,1.4l-.19,0c-.26,0-2.26.55-4,1h0c-.41,6.66-.81,11.84-.82,11.9l-.09,1.19-.51-.57-.12.77-.77.2-.75,2.19L161.16,122l-1.22,1.73-.39-.22-.36,1.1C158.55,125.52,158.18,125.52,158,125.52Zm-1.2-34.7.43.11,0,.37c.38,6.55.61,15,.79,21.87.12,4.48.23,8.49.35,10.51l.52-1.68.69.38.9-1.21,1.59-1,.81-2.37.66-.16.36-2.23.34.38c.15-2,.45-6.12.75-11l0-.36.75-.2c2.77-.73,3.79-1,4.17-1,.77-.31,2.3-1,2.77-1.27l.45-.77,1.94-.49,0-.47,1-.63-.93-.08,3.11-1.7.2-1.36c.09-.17.18-.35.25-.51-3.2,0-8.34.3-12.66.77l-.58.07.22-6.09.46,0,9.34-.58,4.2-.26c2,0,3.31-.71,3.83-2.11.79-2.14-.35-5.19-1-6.11-2,.58-7.76,1.64-17.12,3.17l-.39.06-.16-.36c-1.76-3.93-5.72-3.4-7.92-2.72a.73.73,0,0,0-.49.42,27.06,27.06,0,0,1,.49,3.44l0,.47-2.13.35-2.6.42.09.17,3.37.08-1.5,1.31.86.74-.31.34.78.17,1.79.56Z"/><path class="cls-2" d="M180.81,126.86a3.16,3.16,0,0,1-2.41-1.07c-1.55-1.72-1.78-5.3-.51-8.13l.07-.15.14-.08c5.09-3,17.58-2.47,23.61-.86,2.24.6,3.65,1.34,4.18,2.18l.25.25-.12.22.92,1.12-.62.14a2.2,2.2,0,0,1,.49,1.55h0c-.12.42-.66,2.45-.66,2.46l-.17.63-1-.57c-6.23-.84-17.71.44-22.8,2.09A4.32,4.32,0,0,1,180.81,126.86Zm-2.07-8.64c-1,2.43-.85,5.49.41,6.89a2.37,2.37,0,0,0,2.7.56c5.22-1.7,17-3,23.35-2.12l.15,0c.17-.61.4-1.5.49-1.81a5.12,5.12,0,0,0-.75-1.34l-.45-.62.49-.11-.32-.38.13-.18c-.31-.36-1.16-1-3.49-1.61C194.85,115.77,183.34,115.7,178.74,118.22Zm23.07-2.78-1-.65c-4.83-1.35-10.74-1.34-18.07,0a3.55,3.55,0,0,1-3-.69,5,5,0,0,1-1.42-4,1.47,1.47,0,0,0-.25-.44h-.75l.32-.68a100.33,100.33,0,0,0,7.05-26.35l0-.38.38-.06c4.83-.71,7.71-.58,9.29.41h.1c3,0,4.85,1.38,5.24,3.91a133.06,133.06,0,0,0,7.06,27.16l.26.68h-.73c-.2,0-.26,0-.88-.65l-.34.54-1.3-.81-.91.74-.27-.61,0-.06-.55,1.31Zm-9-2.66a30.77,30.77,0,0,1,8.38,1.06l.17.08c.24-.58.6-1.45.72-1.76l.39-1,.53,1c.1.18.19.36.28.53l.43-.35,1.1.63.4-.62a134,134,0,0,1-6.45-25.57c-.32-2.09-1.78-3.1-4.47-3h-.17l-.13-.09c-1.27-.88-3.91-1-8.33-.39A101,101,0,0,1,178.75,109a2.54,2.54,0,0,1,.54.89l0,.1v.11a4.19,4.19,0,0,0,1.07,3.29,2.53,2.53,0,0,0,2.18.46A56.13,56.13,0,0,1,192.81,112.78Zm3.71-6.21-1-.28a32.86,32.86,0,0,0-7-1.18l-.78,0,.36-.7a85,85,0,0,0,3.52-7.76l.48-1.23.46,1.23c1.24,3.32,2.42,6.26,3.59,9Zm-7.23-2.43a34,34,0,0,1,5.48.91c-.9-2.13-1.81-4.39-2.75-6.87C191.22,100.13,190.32,102.09,189.29,104.14Z"/><path class="cls-2" d="M59.56,124a16.31,16.31,0,0,1-11.69-4.86c-3.45-3.56-5.17-8.68-5-14.82C43.42,88.75,55,81.92,63.24,81.92h.42c3.78.11,6.19,1.82,6.13,4.36-.07,2.75-1.5,7.14-3.68,8l-.21.09-.21-.1a10.42,10.42,0,0,0-10.48.12,13.8,13.8,0,0,0-6.5,10.85A7.45,7.45,0,0,0,51,110.41a11.23,11.23,0,0,0,8.09,3.47c4.46,0,8.31-2.71,10.66-5.49-2.7-.2-6.12-.53-8.48-.76-1.38-.13-2.56-.25-2.71-.25l-.14,0c-2.68-.79-4.92-3.35-6.38-5.22l-.17-.22.08-.28a.43.43,0,0,1,.22-.28h-.07l-.51.06-.14,0c-.32-.09-.93-.27-1.07-.84l-.14-.56.57-.07c.76-.09,1.78-.23,3-.4,5-.7,13.45-1.87,17.75-1.28a2.87,2.87,0,0,1,1.94,1.27,11.32,11.32,0,0,1,1.56,7.24A15.71,15.71,0,0,1,71.28,119,15.51,15.51,0,0,1,59.56,124Zm3.68-41.08c-7.86,0-18.83,6.53-19.33,21.44-.19,5.86,1.43,10.73,4.68,14.09a15.31,15.31,0,0,0,11,4.55,14.52,14.52,0,0,0,11-4.64,14.74,14.74,0,0,0,3.54-11.56v-.14a10.3,10.3,0,0,0-1.37-6.53,1.93,1.93,0,0,0-1.26-.87c-2.8-.39-7.52,0-11.82.53l.86,0,0,1c-4.57.66-6.46,1-7.24,1.22,2,2.41,3.74,3.82,5.39,4.33.29,0,1.11.09,2.73.25,2.64.25,6.64.64,9.42.83l.93.06-.56.74c-2.4,3.21-6.83,6.63-12.05,6.63a12.24,12.24,0,0,1-8.82-3.78,8.45,8.45,0,0,1-2.62-5.87,14.85,14.85,0,0,1,7-11.68,11.47,11.47,0,0,1,11.23-.27c1.49-.86,2.8-4.46,2.86-7,.06-2.34-2.62-3.25-5.15-3.33Z"/><path class="cls-2" d="M76.43,126.24H76l-.07-.42c-.16-.92-.31-5.92-.51-12.86l-.09-3A10.55,10.55,0,0,1,71,104a6.91,6.91,0,0,1-.25-2.72h.5a5.47,5.47,0,0,1,.11-1.45l.4-1.76.57,1.72c.18.53,1,1.38,2.76,2.2-.16-3.46-.32-6.84-.47-9.74-1,.16-2,.36-3.07.63l-.15,0-.15-.05c-1.39-.52-2.46-2.6-2.81-4.39a4.43,4.43,0,0,1,1-4.21c1.48-1.39,16.89-5.36,27.18-.87,6,2.64,9.09,7.61,9,14.76-.05,5.22-2.69,9.1-7.85,11.52,2.2,4.23,3.08,9.19,2.25,12.79l-.46-.07a4,4,0,0,1-.15.83l-.25.81-.47-.48c-.4.56-.76.87-1.06.92s-1.52.35-1.52.35l-.3.07-.86-1c-1-3.7-3-7.57-6.34-11.84a40.56,40.56,0,0,1-5,.33c-.22,3.46-.39,5.72-.39,5.72l-.07.22s-.42.73-1,1.69A25.92,25.92,0,0,0,81,122.34l-.09.2-.21.07a2.18,2.18,0,0,0-.9.61c0,.07-.24.62-.4,1.06l-.14.38-.56-.07-.83,1.32-.43-.31-.12-.08-.07.12C77,125.9,76.83,126.24,76.43,126.24ZM72.95,106a9,9,0,0,0,3.15,3.26l.23.14.1,3.52c.15,5,.28,9.54.4,11.62l.13-.07a.65.65,0,0,1,.56,0l.63-1,.4,0a6.87,6.87,0,0,1,.4-.93,3.11,3.11,0,0,1,1.19-.9,24,24,0,0,1,1.16-2.29c.45-.73.81-1.33.94-1.55,0-.53.2-2.82.41-6.06l0-.47h.83a39,39,0,0,0,5.28-.36l.29,0,.18.23c3.46,4.42,5.65,8.45,6.66,12.32l.26.29c.39-.09,1-.25,1.3-.3a7.39,7.39,0,0,0,.73-1l.39-.64h0A38.36,38.36,0,0,0,97,113l.91-.41s.14.22.31.54a22.82,22.82,0,0,0-1.53-3.45l-.27-.48.51-.22c5.09-2.23,7.69-5.88,7.74-10.83.05-6.71-2.79-11.36-8.43-13.82-9.73-4.24-24.73-.6-26.09.69a3.49,3.49,0,0,0-.66,3.28,5.54,5.54,0,0,0,2,3.57c1.27-.3,2.43-.52,3.54-.69l.55-.08,0,.55c.18,3.24.36,7.15.54,11.12l0,.78-.73-.29a10.45,10.45,0,0,1-3.17-1.87,11.17,11.17,0,0,0,1.24,4.18ZM83,104.8l0-.54c.26-4,.43-8,.48-11.5,0-.75,0-1.47-.06-2l-.06-.53.54,0c7.47-.28,13.39,1,15.83,3.55A3.67,3.67,0,0,1,101,96.52c-.33,4.31-10,8.21-17.38,8.28Zm1.5-13.65c0,.5,0,1,0,1.62-.05,3.38-.21,7.17-.45,11,7.41-.23,15.58-4,15.83-7.33a2.65,2.65,0,0,0-.86-2C97.39,92.66,92.63,90.9,84.54,91.15Z"/><path class="cls-2" d="M106,126.86a3.15,3.15,0,0,1-2.41-1.07c-1.56-1.72-1.78-5.29-.52-8.13l.07-.15.14-.08c5.09-3,17.59-2.48,23.61-.86,2.25.6,3.65,1.34,4.18,2.18l.25.25-.12.22.92,1.12-.62.14A2.2,2.2,0,0,1,132,122h0c-.12.42-.66,2.45-.66,2.46l-.17.63-1-.57c-6.23-.84-17.71.44-22.8,2.09A4.32,4.32,0,0,1,106,126.86Zm-2.07-8.64c-1,2.43-.85,5.5.41,6.89a2.37,2.37,0,0,0,2.7.56c5.22-1.7,17-3,23.35-2.12l.15,0c.17-.61.4-1.5.49-1.81a5.12,5.12,0,0,0-.75-1.34l-.45-.62.49-.11-.32-.38.13-.18c-.31-.36-1.16-1-3.49-1.61C120,115.77,108.5,115.69,103.91,118.22ZM127,115.44l-1-.65c-4.83-1.35-10.74-1.34-18.07,0a3.55,3.55,0,0,1-3-.69,5,5,0,0,1-1.42-4,1.47,1.47,0,0,0-.25-.44h-.75l.32-.68a100.33,100.33,0,0,0,7.05-26.35l0-.38.38-.06c4.83-.71,7.71-.58,9.29.41h.1c3,0,4.85,1.38,5.24,3.91A133.06,133.06,0,0,0,132,113.72l.26.68h-.73c-.2,0-.26,0-.88-.65l-.34.54-1.3-.81-.91.74-.27-.61,0-.06-.55,1.31Zm-9-2.66a30.77,30.77,0,0,1,8.38,1.06l.17.08c.24-.58.6-1.45.72-1.76l.39-1,.53,1c.1.18.19.36.28.53l.43-.35,1.1.63.4-.62a134,134,0,0,1-6.45-25.57c-.32-2.09-1.8-3.1-4.47-3h-.17l-.13-.09c-1.27-.88-3.91-1-8.33-.39A101,101,0,0,1,103.92,109a2.54,2.54,0,0,1,.54.89l0,.1v.11a4.19,4.19,0,0,0,1.07,3.29,2.52,2.52,0,0,0,2.18.46A56.13,56.13,0,0,1,118,112.78Zm3.72-6.21-1-.28a32.9,32.9,0,0,0-7-1.18l-.78,0,.36-.7a85,85,0,0,0,3.52-7.76l.48-1.23.46,1.23c1.25,3.34,2.43,6.28,3.6,9Zm-7.24-2.43a34,34,0,0,1,5.48.91c-.9-2.12-1.8-4.38-2.75-6.87C116.39,100.13,115.49,102.09,114.46,104.14Z"/><path class="cls-2" d="M131.68,125.52h-.42l-.08-.41c-.18-.92-.3-5.53-.47-11.92-.18-6.69-.41-15-.77-21.47l-1-.25.44-.76-.54-.17L126.41,90l.77-.86-1-.82.42-.37-1.31,0-.15-.22a3.09,3.09,0,0,1-.56-1.36v-.44l.44-.06c.36,0,1.5-.23,3.17-.51l1.21-.2a25,25,0,0,0-.43-2.89,1.52,1.52,0,0,1,1.19-1.55c2-.6,6.74-1.48,9,2.93,9.5-1.55,15.34-2.64,16.9-3.16l.27-.09.22.19c1,.83,2.5,4.74,1.51,7.42-.47,1.26-1.68,2.77-4.78,2.77h0l-4.14.26-8.89.56-.15,4c4.56-.47,9.86-.72,12.87-.72h.51v.51a4,4,0,0,1-.5,1.41l-.2,1.6-.62.34.51,0-2.89,1.9.08.73-2.38.6-.39.67-.14.07c-.09,0-2.13,1-3,1.4l-.19,0c-.26,0-2.26.55-4,1h0c-.41,6.66-.81,11.84-.82,11.9l-.09,1.19-.51-.57-.12.77-.77.2-.75,2.19L134.8,122l-1.22,1.73-.39-.22-.36,1.1C132.2,125.52,131.82,125.52,131.68,125.52Zm-.15-1Zm-1.06-33.72.43.11,0,.37c.38,6.55.61,15,.79,21.87.12,4.48.23,8.49.35,10.51l.52-1.68.69.38.9-1.21,1.59-1,.81-2.37.66-.16.36-2.23.34.38c.15-2,.45-6.12.75-11l0-.36.75-.2c2.77-.73,3.79-1,4.17-1,.77-.31,2.3-1,2.77-1.27l.45-.77,1.94-.49,0-.47,1-.63-.93-.08,3.11-1.7.2-1.36c.09-.17.18-.35.25-.51-3.2,0-8.34.3-12.66.77l-.58.07.22-6.09.46,0L149.1,90l4.2-.26c2,0,3.31-.71,3.83-2.11.79-2.14-.35-5.19-1-6.11-2,.58-7.76,1.64-17.12,3.17l-.39.06-.16-.36c-1.76-3.93-5.72-3.4-7.92-2.72a.74.74,0,0,0-.49.43,26,26,0,0,1,.49,3.43l0,.47-2.13.35-2.6.42.09.17,3.37.08-1.5,1.31.86.74-.31.34.78.17,1.79.56Z"/><path class="cls-2" d="M158,125.52h-.42l-.08-.41c-.18-.92-.3-5.53-.47-11.92-.18-6.69-.41-15-.77-21.47l-1-.25.44-.76-.54-.17L152.77,90l.77-.86-1-.82.42-.37-1.31,0-.15-.22a3.09,3.09,0,0,1-.56-1.36v-.44l.44-.06c.36,0,1.5-.23,3.17-.51l1.21-.2a27.49,27.49,0,0,0-.43-2.9,1.51,1.51,0,0,1,1.19-1.55c2-.6,6.74-1.48,9,2.93,9.5-1.55,15.34-2.64,16.9-3.16l.27-.09.22.19c1,.83,2.5,4.74,1.51,7.42-.47,1.26-1.68,2.77-4.78,2.77h0l-4.14.26-8.89.56-.15,4c4.56-.47,9.86-.72,12.87-.72h.51v.51a4,4,0,0,1-.5,1.41l-.2,1.6-.62.34.51,0-2.89,1.9.08.73-2.38.6-.39.67-.14.07c-.09,0-2.13,1-3,1.4l-.19,0c-.26,0-2.26.55-4,1h0c-.41,6.66-.81,11.84-.82,11.9l-.09,1.19-.51-.57-.12.77-.77.2-.75,2.19L161.16,122l-1.22,1.73-.39-.22-.36,1.1C158.55,125.52,158.18,125.52,158,125.52Zm-1.2-34.7.43.11,0,.37c.38,6.55.61,15,.79,21.87.12,4.48.23,8.49.35,10.51l.52-1.68.69.38.9-1.21,1.59-1,.81-2.37.66-.16.36-2.23.34.38c.15-2,.45-6.12.75-11l0-.36.75-.2c2.77-.73,3.79-1,4.17-1,.77-.31,2.3-1,2.77-1.27l.45-.77,1.94-.49,0-.47,1-.63-.93-.08,3.11-1.7.2-1.36c.09-.17.18-.35.25-.51-3.2,0-8.34.3-12.66.77l-.58.07.22-6.09.46,0,9.34-.58,4.2-.26c2,0,3.31-.71,3.83-2.11.79-2.14-.35-5.19-1-6.11-2,.58-7.76,1.64-17.12,3.17l-.39.06-.16-.36c-1.76-3.93-5.72-3.4-7.92-2.72a.73.73,0,0,0-.49.42,27.06,27.06,0,0,1,.49,3.44l0,.47-2.13.35-2.6.42.09.17,3.37.08-1.5,1.31.86.74-.31.34.78.17,1.79.56Z"/><path class="cls-2" d="M180.81,126.86a3.16,3.16,0,0,1-2.41-1.07c-1.55-1.72-1.78-5.3-.51-8.13l.07-.15.14-.08c5.09-3,17.58-2.47,23.61-.86,2.24.6,3.65,1.34,4.18,2.18l.25.25-.12.22.92,1.12-.62.14a2.2,2.2,0,0,1,.49,1.55h0c-.12.42-.66,2.45-.66,2.46l-.17.63-1-.57c-6.23-.84-17.71.44-22.8,2.09A4.32,4.32,0,0,1,180.81,126.86Zm-2.07-8.64c-1,2.43-.85,5.49.41,6.89a2.37,2.37,0,0,0,2.7.56c5.22-1.7,17-3,23.35-2.12l.15,0c.17-.61.4-1.5.49-1.81a5.12,5.12,0,0,0-.75-1.34l-.45-.62.49-.11-.32-.38.13-.18c-.31-.36-1.16-1-3.49-1.61C194.85,115.77,183.34,115.7,178.74,118.22Zm23.07-2.78-1-.65c-4.83-1.35-10.74-1.34-18.07,0a3.55,3.55,0,0,1-3-.69,5,5,0,0,1-1.42-4,1.47,1.47,0,0,0-.25-.44h-.75l.32-.68a100.33,100.33,0,0,0,7.05-26.35l0-.38.38-.06c4.83-.71,7.71-.58,9.29.41h.1c3,0,4.85,1.38,5.24,3.91a133.06,133.06,0,0,0,7.06,27.16l.26.68h-.73c-.2,0-.26,0-.88-.65l-.34.54-1.3-.81-.91.74-.27-.61,0-.06-.55,1.31Zm-9-2.66a30.77,30.77,0,0,1,8.38,1.06l.17.08c.24-.58.6-1.45.72-1.76l.39-1,.53,1c.1.18.19.36.28.53l.43-.35,1.1.63.4-.62a134,134,0,0,1-6.45-25.57c-.32-2.09-1.78-3.1-4.47-3h-.17l-.13-.09c-1.27-.88-3.91-1-8.33-.39A101,101,0,0,1,178.75,109a2.54,2.54,0,0,1,.54.89l0,.1v.11a4.19,4.19,0,0,0,1.07,3.29,2.53,2.53,0,0,0,2.18.46A56.13,56.13,0,0,1,192.81,112.78Zm3.71-6.21-1-.28a32.86,32.86,0,0,0-7-1.18l-.78,0,.36-.7a85,85,0,0,0,3.52-7.76l.48-1.23.46,1.23c1.24,3.32,2.42,6.26,3.59,9Zm-7.23-2.43a34,34,0,0,1,5.48.91c-.9-2.13-1.81-4.39-2.75-6.87C191.22,100.13,190.32,102.09,189.29,104.14Z"/><path class="cls-2" d="M59.56,124a16.31,16.31,0,0,1-11.69-4.86c-3.45-3.56-5.17-8.68-5-14.82C43.42,88.75,55,81.92,63.24,81.92h.42c3.78.11,6.19,1.82,6.13,4.36-.07,2.75-1.5,7.14-3.68,8l-.21.09-.21-.1a10.42,10.42,0,0,0-10.48.12,13.8,13.8,0,0,0-6.5,10.85A7.45,7.45,0,0,0,51,110.41a11.23,11.23,0,0,0,8.09,3.47c4.46,0,8.31-2.71,10.66-5.49-2.7-.2-6.12-.53-8.48-.76-1.38-.13-2.56-.25-2.71-.25l-.14,0c-2.68-.79-4.92-3.35-6.38-5.22l-.17-.22.08-.28a.43.43,0,0,1,.22-.28h-.07l-.51.06-.14,0c-.32-.09-.93-.27-1.07-.84l-.14-.56.57-.07c.76-.09,1.78-.23,3-.4,5-.7,13.45-1.87,17.75-1.28a2.87,2.87,0,0,1,1.94,1.27,11.32,11.32,0,0,1,1.56,7.24A15.71,15.71,0,0,1,71.28,119,15.51,15.51,0,0,1,59.56,124Zm3.68-41.08c-7.86,0-18.83,6.53-19.33,21.44-.19,5.86,1.43,10.73,4.68,14.09a15.31,15.31,0,0,0,11,4.55,14.52,14.52,0,0,0,11-4.64,14.74,14.74,0,0,0,3.54-11.56v-.14a10.3,10.3,0,0,0-1.37-6.53,1.93,1.93,0,0,0-1.26-.87c-2.8-.39-7.52,0-11.82.53l.86,0,0,1c-4.57.66-6.46,1-7.24,1.22,2,2.41,3.74,3.82,5.39,4.33.29,0,1.11.09,2.73.25,2.64.25,6.64.64,9.42.83l.93.06-.56.74c-2.4,3.21-6.83,6.63-12.05,6.63a12.24,12.24,0,0,1-8.82-3.78,8.45,8.45,0,0,1-2.62-5.87,14.85,14.85,0,0,1,7-11.68,11.47,11.47,0,0,1,11.23-.27c1.49-.86,2.8-4.46,2.86-7,.06-2.34-2.62-3.25-5.15-3.33Z"/><path class="cls-2" d="M76.43,126.24H76l-.07-.42c-.16-.92-.31-5.92-.51-12.86l-.09-3A10.55,10.55,0,0,1,71,104a6.91,6.91,0,0,1-.25-2.72h.5a5.47,5.47,0,0,1,.11-1.45l.4-1.76.57,1.72c.18.53,1,1.38,2.76,2.2-.16-3.46-.32-6.84-.47-9.74-1,.16-2,.36-3.07.63l-.15,0-.15-.05c-1.39-.52-2.46-2.6-2.81-4.39a4.43,4.43,0,0,1,1-4.21c1.48-1.39,16.89-5.36,27.18-.87,6,2.64,9.09,7.61,9,14.76-.05,5.22-2.69,9.1-7.85,11.52,2.2,4.23,3.08,9.19,2.25,12.79l-.46-.07a4,4,0,0,1-.15.83l-.25.81-.47-.48c-.4.56-.76.87-1.06.92s-1.52.35-1.52.35l-.3.07-.86-1c-1-3.7-3-7.57-6.34-11.84a40.56,40.56,0,0,1-5,.33c-.22,3.46-.39,5.72-.39,5.72l-.07.22s-.42.73-1,1.69A25.92,25.92,0,0,0,81,122.34l-.09.2-.21.07a2.18,2.18,0,0,0-.9.61c0,.07-.24.62-.4,1.06l-.14.38-.56-.07-.83,1.32-.43-.31-.12-.08-.07.12C77,125.9,76.83,126.24,76.43,126.24ZM72.95,106a9,9,0,0,0,3.15,3.26l.23.14.1,3.52c.15,5,.28,9.54.4,11.62l.13-.07a.65.65,0,0,1,.56,0l.63-1,.4,0a6.87,6.87,0,0,1,.4-.93,3.11,3.11,0,0,1,1.19-.9,24,24,0,0,1,1.16-2.29c.45-.73.81-1.33.94-1.55,0-.53.2-2.82.41-6.06l0-.47h.83a39,39,0,0,0,5.28-.36l.29,0,.18.23c3.46,4.42,5.65,8.45,6.66,12.32l.26.29c.39-.09,1-.25,1.3-.3a7.39,7.39,0,0,0,.73-1l.39-.64h0A38.36,38.36,0,0,0,97,113l.91-.41s.14.22.31.54a22.82,22.82,0,0,0-1.53-3.45l-.27-.48.51-.22c5.09-2.23,7.69-5.88,7.74-10.83.05-6.71-2.79-11.36-8.43-13.82-9.73-4.24-24.73-.6-26.09.69a3.49,3.49,0,0,0-.66,3.28,5.54,5.54,0,0,0,2,3.57c1.27-.3,2.43-.52,3.54-.69l.55-.08,0,.55c.18,3.24.36,7.15.54,11.12l0,.78-.73-.29a10.45,10.45,0,0,1-3.17-1.87,11.17,11.17,0,0,0,1.24,4.18ZM83,104.8l0-.54c.26-4,.43-8,.48-11.5,0-.75,0-1.47-.06-2l-.06-.53.54,0c7.47-.28,13.39,1,15.83,3.55A3.67,3.67,0,0,1,101,96.52c-.33,4.31-10,8.21-17.38,8.28Zm1.5-13.65c0,.5,0,1,0,1.62-.05,3.38-.21,7.17-.45,11,7.41-.23,15.58-4,15.83-7.33a2.65,2.65,0,0,0-.86-2C97.39,92.66,92.63,90.9,84.54,91.15Z"/><path class="cls-2" d="M106,126.86a3.15,3.15,0,0,1-2.41-1.07c-1.56-1.72-1.78-5.29-.52-8.13l.07-.15.14-.08c5.09-3,17.59-2.48,23.61-.86,2.25.6,3.65,1.34,4.18,2.18l.25.25-.12.22.92,1.12-.62.14A2.2,2.2,0,0,1,132,122h0c-.12.42-.66,2.45-.66,2.46l-.17.63-1-.57c-6.23-.84-17.71.44-22.8,2.09A4.32,4.32,0,0,1,106,126.86Zm-2.07-8.64c-1,2.43-.85,5.5.41,6.89a2.37,2.37,0,0,0,2.7.56c5.22-1.7,17-3,23.35-2.12l.15,0c.17-.61.4-1.5.49-1.81a5.12,5.12,0,0,0-.75-1.34l-.45-.62.49-.11-.32-.38.13-.18c-.31-.36-1.16-1-3.49-1.61C120,115.77,108.5,115.69,103.91,118.22ZM127,115.44l-1-.65c-4.83-1.35-10.74-1.34-18.07,0a3.55,3.55,0,0,1-3-.69,5,5,0,0,1-1.42-4,1.47,1.47,0,0,0-.25-.44h-.75l.32-.68a100.33,100.33,0,0,0,7.05-26.35l0-.38.38-.06c4.83-.71,7.71-.58,9.29.41h.1c3,0,4.85,1.38,5.24,3.91A133.06,133.06,0,0,0,132,113.72l.26.68h-.73c-.2,0-.26,0-.88-.65l-.34.54-1.3-.81-.91.74-.27-.61,0-.06-.55,1.31Zm-9-2.66a30.77,30.77,0,0,1,8.38,1.06l.17.08c.24-.58.6-1.45.72-1.76l.39-1,.53,1c.1.18.19.36.28.53l.43-.35,1.1.63.4-.62a134,134,0,0,1-6.45-25.57c-.32-2.09-1.8-3.1-4.47-3h-.17l-.13-.09c-1.27-.88-3.91-1-8.33-.39A101,101,0,0,1,103.92,109a2.54,2.54,0,0,1,.54.89l0,.1v.11a4.19,4.19,0,0,0,1.07,3.29,2.52,2.52,0,0,0,2.18.46A56.13,56.13,0,0,1,118,112.78Zm3.72-6.21-1-.28a32.9,32.9,0,0,0-7-1.18l-.78,0,.36-.7a85,85,0,0,0,3.52-7.76l.48-1.23.46,1.23c1.25,3.34,2.43,6.28,3.6,9Zm-7.24-2.43a34,34,0,0,1,5.48.91c-.9-2.12-1.8-4.38-2.75-6.87C116.39,100.13,115.49,102.09,114.46,104.14Z"/><path class="cls-2" d="M131.68,125.52h-.42l-.08-.41c-.18-.92-.3-5.53-.47-11.92-.18-6.69-.41-15-.77-21.47l-1-.25.44-.76-.54-.17L126.41,90l.77-.86-1-.82.42-.37-1.31,0-.15-.22a3.09,3.09,0,0,1-.56-1.36v-.44l.44-.06c.36,0,1.5-.23,3.17-.51l1.21-.2a25,25,0,0,0-.43-2.89,1.52,1.52,0,0,1,1.19-1.55c2-.6,6.74-1.48,9,2.93,9.5-1.55,15.34-2.64,16.9-3.16l.27-.09.22.19c1,.83,2.5,4.74,1.51,7.42-.47,1.26-1.68,2.77-4.78,2.77h0l-4.14.26-8.89.56-.15,4c4.56-.47,9.86-.72,12.87-.72h.51v.51a4,4,0,0,1-.5,1.41l-.2,1.6-.62.34.51,0-2.89,1.9.08.73-2.38.6-.39.67-.14.07c-.09,0-2.13,1-3,1.4l-.19,0c-.26,0-2.26.55-4,1h0c-.41,6.66-.81,11.84-.82,11.9l-.09,1.19-.51-.57-.12.77-.77.2-.75,2.19L134.8,122l-1.22,1.73-.39-.22-.36,1.1C132.2,125.52,131.82,125.52,131.68,125.52Zm-.15-1Zm-1.06-33.72.43.11,0,.37c.38,6.55.61,15,.79,21.87.12,4.48.23,8.49.35,10.51l.52-1.68.69.38.9-1.21,1.59-1,.81-2.37.66-.16.36-2.23.34.38c.15-2,.45-6.12.75-11l0-.36.75-.2c2.77-.73,3.79-1,4.17-1,.77-.31,2.3-1,2.77-1.27l.45-.77,1.94-.49,0-.47,1-.63-.93-.08,3.11-1.7.2-1.36c.09-.17.18-.35.25-.51-3.2,0-8.34.3-12.66.77l-.58.07.22-6.09.46,0L149.1,90l4.2-.26c2,0,3.31-.71,3.83-2.11.79-2.14-.35-5.19-1-6.11-2,.58-7.76,1.64-17.12,3.17l-.39.06-.16-.36c-1.76-3.93-5.72-3.4-7.92-2.72a.74.74,0,0,0-.49.43,26,26,0,0,1,.49,3.43l0,.47-2.13.35-2.6.42.09.17,3.37.08-1.5,1.31.86.74-.31.34.78.17,1.79.56Z"/><path class="cls-2" d="M158,125.52h-.42l-.08-.41c-.18-.92-.3-5.53-.47-11.92-.18-6.69-.41-15-.77-21.47l-1-.25.44-.76-.54-.17L152.77,90l.77-.86-1-.82.42-.37-1.31,0-.15-.22a3.09,3.09,0,0,1-.56-1.36v-.44l.44-.06c.36,0,1.5-.23,3.17-.51l1.21-.2a27.49,27.49,0,0,0-.43-2.9,1.51,1.51,0,0,1,1.19-1.55c2-.6,6.74-1.48,9,2.93,9.5-1.55,15.34-2.64,16.9-3.16l.27-.09.22.19c1,.83,2.5,4.74,1.51,7.42-.47,1.26-1.68,2.77-4.78,2.77h0l-4.14.26-8.89.56-.15,4c4.56-.47,9.86-.72,12.87-.72h.51v.51a4,4,0,0,1-.5,1.41l-.2,1.6-.62.34.51,0-2.89,1.9.08.73-2.38.6-.39.67-.14.07c-.09,0-2.13,1-3,1.4l-.19,0c-.26,0-2.26.55-4,1h0c-.41,6.66-.81,11.84-.82,11.9l-.09,1.19-.51-.57-.12.77-.77.2-.75,2.19L161.16,122l-1.22,1.73-.39-.22-.36,1.1C158.55,125.52,158.18,125.52,158,125.52Zm-1.2-34.7.43.11,0,.37c.38,6.55.61,15,.79,21.87.12,4.48.23,8.49.35,10.51l.52-1.68.69.38.9-1.21,1.59-1,.81-2.37.66-.16.36-2.23.34.38c.15-2,.45-6.12.75-11l0-.36.75-.2c2.77-.73,3.79-1,4.17-1,.77-.31,2.3-1,2.77-1.27l.45-.77,1.94-.49,0-.47,1-.63-.93-.08,3.11-1.7.2-1.36c.09-.17.18-.35.25-.51-3.2,0-8.34.3-12.66.77l-.58.07.22-6.09.46,0,9.34-.58,4.2-.26c2,0,3.31-.71,3.83-2.11.79-2.14-.35-5.19-1-6.11-2,.58-7.76,1.64-17.12,3.17l-.39.06-.16-.36c-1.76-3.93-5.72-3.4-7.92-2.72a.73.73,0,0,0-.49.42,27.06,27.06,0,0,1,.49,3.44l0,.47-2.13.35-2.6.42.09.17,3.37.08-1.5,1.31.86.74-.31.34.78.17,1.79.56Z"/><path class="cls-2" d="M180.81,126.86a3.16,3.16,0,0,1-2.41-1.07c-1.55-1.72-1.78-5.3-.51-8.13l.07-.15.14-.08c5.09-3,17.58-2.47,23.61-.86,2.24.6,3.65,1.34,4.18,2.18l.25.25-.12.22.92,1.12-.62.14a2.2,2.2,0,0,1,.49,1.55h0c-.12.42-.66,2.45-.66,2.46l-.17.63-1-.57c-6.23-.84-17.71.44-22.8,2.09A4.32,4.32,0,0,1,180.81,126.86Zm-2.07-8.64c-1,2.43-.85,5.49.41,6.89a2.37,2.37,0,0,0,2.7.56c5.22-1.7,17-3,23.35-2.12l.15,0c.17-.61.4-1.5.49-1.81a5.12,5.12,0,0,0-.75-1.34l-.45-.62.49-.11-.32-.38.13-.18c-.31-.36-1.16-1-3.49-1.61C194.85,115.77,183.34,115.7,178.74,118.22Zm23.07-2.78-1-.65c-4.83-1.35-10.74-1.34-18.07,0a3.55,3.55,0,0,1-3-.69,5,5,0,0,1-1.42-4,1.47,1.47,0,0,0-.25-.44h-.75l.32-.68a100.33,100.33,0,0,0,7.05-26.35l0-.38.38-.06c4.83-.71,7.71-.58,9.29.41h.1c3,0,4.85,1.38,5.24,3.91a133.06,133.06,0,0,0,7.06,27.16l.26.68h-.73c-.2,0-.26,0-.88-.65l-.34.54-1.3-.81-.91.74-.27-.61,0-.06-.55,1.31Zm-9-2.66a30.77,30.77,0,0,1,8.38,1.06l.17.08c.24-.58.6-1.45.72-1.76l.39-1,.53,1c.1.18.19.36.28.53l.43-.35,1.1.63.4-.62a134,134,0,0,1-6.45-25.57c-.32-2.09-1.78-3.1-4.47-3h-.17l-.13-.09c-1.27-.88-3.91-1-8.33-.39A101,101,0,0,1,178.75,109a2.54,2.54,0,0,1,.54.89l0,.1v.11a4.19,4.19,0,0,0,1.07,3.29,2.53,2.53,0,0,0,2.18.46A56.13,56.13,0,0,1,192.81,112.78Zm3.71-6.21-1-.28a32.86,32.86,0,0,0-7-1.18l-.78,0,.36-.7a85,85,0,0,0,3.52-7.76l.48-1.23.46,1.23c1.24,3.32,2.42,6.26,3.59,9Zm-7.23-2.43a34,34,0,0,1,5.48.91c-.9-2.13-1.81-4.39-2.75-6.87C191.22,100.13,190.32,102.09,189.29,104.14Z"/><path class="cls-2" d="M72.71,182.13a1.93,1.93,0,0,1-.86-.23c-2.1-1-5.06-5.52-5.1-8.49a2.72,2.72,0,0,1,1.38-2.62,3.67,3.67,0,0,1,.6-.37l0-.42c.8-10.29,2.29-29.44.36-33.31l-.23-.46.47-.22c.2-.09,4.88-2.29,8.25-.17,2.1,1.32,3.16,4,3.16,8,0,7-1.39,15.62-2.64,22,6.69-3,11.9-4.27,15.92-4l.24,0,.27.4-.06.26c-.07.23-.24.36-.51.49.61.16,1,.32,1.12.74s-.1.89-.65,1.64l.06,2.17-.67,1.34.56.28-.54.5a4.15,4.15,0,0,1-1.28.83l-.14,0c-.8.18-10,4.72-19,11.43A1.17,1.17,0,0,1,72.71,182.13Zm-2.49-45.4c1.75,4.94.37,22.62-.46,33.34l-.08,1-.29.12a3.3,3.3,0,0,0-.73.41,1.76,1.76,0,0,0-.91,1.76c0,2.72,2.9,6.78,4.54,7.6.24.12.44.16.51.1,8.6-6.42,18-11.24,19.5-11.61h0a1.15,1.15,0,0,0,.28-.14l-.09,0,1-2L93.44,165l.11-.14a4.43,4.43,0,0,0,.52-.83l-.56-.16c-.62-.16-1-.26-1.15-.58l-.09-.19.07-.26,0-.08c-3.8.12-8.65,1.54-14.72,4.31l-.9.41.2-1c1.28-6.36,2.81-15.47,2.81-22.72,0-3.58-.9-6-2.69-7.1C74.72,135.21,71.41,136.27,70.23,136.73Z"/><path class="cls-2" d="M94.49,182h-.43l-.07-.42c-.15-.93-.22-5.54-.32-11.91-.17-11.39-.41-27-1.29-31.55a1,1,0,0,1,.17-.77,1.63,1.63,0,0,1,1.07-.73c1.59-.4,4.62-.79,6.94,1.07,2.08,1.68,3.05,4.76,2.91,9.17h0c-.47,12.3-1.73,26.9-1.74,27l-.11,1.28-.53-.69-.15.74-.77.19-.75,2.14-1.81,1.06-1.29,1.74-.3-.26-.35,1C95,182,94.61,182,94.49,182Zm1.72-44.7a10,10,0,0,0-2.38.31.59.59,0,0,0-.47.36c.9,4.62,1.14,20.27,1.31,31.69.07,4.58.13,8.67.22,10.64l.59-2,.66.58.84-1.08,1.58-.93.81-2.3.67-.17.45-2.27.31.39c.32-3.83,1.24-15.56,1.63-25.71h0c.13-4.07-.72-6.88-2.54-8.35A5.79,5.79,0,0,0,96.21,137.31Z"/><path class="cls-2" d="M108,181a3.16,3.16,0,0,1-2.43-1.08c-1.54-1.72-1.78-5.28-.54-8.1l.07-.17.6-.3,0-2.25c.06-10.66.16-26.78-.67-31.46a1.53,1.53,0,0,1,1.19-1.53c1.69-.41,4.81-.8,7.13,1.13,2,1.68,2.91,4.73,2.65,9.05-.45,8.12-1.29,16.26-1.78,21.12l-.2,2c5.86-.38,12.77.77,14.17,3.24l.19.34-.1.11.83,1.09-.57.13c.68,1,.57,1.37.52,1.51v0c-.14.38-.56,1.87-.71,2.42l-.15.57-1-.45c-4.89-.67-10.74.13-17.89,2.45A4.37,4.37,0,0,1,108,181Zm-2.12-8.61c-1,2.42-.81,5.47.44,6.85a2.38,2.38,0,0,0,2.68.58c7.32-2.38,13.35-3.2,18.42-2.48l.14,0c.17-.58.41-1.46.55-1.85a6,6,0,0,0-.79-1.28l-.49-.63.54-.12-.3-.39.15-.18c-1.35-1.83-7.72-3-13.7-2.51l-.6.05.32-3.17c.5-4.86,1.33-13,1.78-21.08.24-4-.53-6.75-2.29-8.22-2-1.65-4.74-1.29-6.21-.93a.71.71,0,0,0-.46.42c.84,4.73.75,20.26.68,31.6l0,2.87Z"/><path class="cls-2" d="M128.83,181a3.16,3.16,0,0,1-2.43-1.08c-1.54-1.72-1.78-5.28-.54-8.1l.07-.17.6-.3,0-2.25c.06-10.66.16-26.78-.67-31.46a1.53,1.53,0,0,1,1.19-1.53c1.68-.41,4.81-.8,7.13,1.13,2,1.68,2.91,4.73,2.65,9.05-.45,8.12-1.29,16.26-1.78,21.12l-.2,2c5.85-.38,12.77.77,14.17,3.24l.19.34-.1.11.82,1.08-.56.13c.68,1,.57,1.37.52,1.51v0c-.14.38-.56,1.87-.71,2.42l-.15.57-1-.45c-4.89-.67-10.74.13-17.89,2.45A4.37,4.37,0,0,1,128.83,181Zm-2.12-8.61c-1,2.42-.81,5.47.44,6.85a2.38,2.38,0,0,0,2.68.58c7.32-2.38,13.35-3.2,18.42-2.48l.14,0c.17-.58.41-1.46.55-1.85a6,6,0,0,0-.79-1.28l-.49-.63.54-.12-.3-.39.15-.18c-1.35-1.83-7.72-3-13.7-2.51l-.6.05.32-3.17c.5-4.86,1.33-13,1.78-21.08.24-4-.53-6.75-2.29-8.22-2-1.65-4.74-1.29-6.21-.93a.71.71,0,0,0-.46.42c.84,4.73.75,20.26.68,31.6l0,2.87Z"/><path class="cls-2" d="M149.61,180.46c-.85,0-1.78-.87-2.58-2.47-1.33-2.65-1.65-6,.39-7.09a6,6,0,0,1,1-.45c0-1.64,0-3.46,0-5.38,0-9.78.1-23.18-.77-26.31l-.12-.43.41-.17a12,12,0,0,1,5-.76c5.82-.79,18.3-.58,23-.5l1.64,0-.18.63a6.7,6.7,0,0,0,0,1.4l0,.35-.32.14a6.07,6.07,0,0,0-1.7,1.2l-.3.24,1.65.08-3.41,1.75-.06.75-.28.12c-.25.1-2.43,1-2.8,1.15l-.16,0c-.25,0-3,.46-5.87.93l-5.35.86c0,.11,0,.22,0,.32s0,.46,0,.69c-.05,1.34-.14,2.57-.25,3.87a126.77,126.77,0,0,1,14.52-.89h.5v.5a4,4,0,0,1-.5,1.42l-.27,1.6-.59.32.6,0-3,1.9.07.72-2.38.6-.39.67-.14.07c-.09,0-2.2,1-3.05,1.34l-.17,0c-.19,0-1.33.32-2.44.62s-2.45.65-3.75,1c-.2,2-.44,4-.75,6,4.77-1.51,17.42-5.09,25.47-3.55l.41.08v.42c0,.5-.65,1.24-1.22,1.79l-.34.8-.93.44.12.92a11.77,11.77,0,0,0-2.51,1.37,6.37,6.37,0,0,0-1,1,3.2,3.2,0,0,1-1.25,1l-.18,0a116,116,0,0,0-25.18,8.66A1.22,1.22,0,0,1,149.61,180.46ZM148.72,139c.8,3.88.75,16.17.7,26.13,0,2.06,0,4,0,5.74v.36l-.34.12a6,6,0,0,0-1.16.5c-1.41.74-1.08,3.56,0,5.75.73,1.45,1.53,2,1.78,1.89a114.55,114.55,0,0,1,25.5-8.75,2.56,2.56,0,0,0,.8-.72,7.35,7.35,0,0,1,1.12-1.1,7.57,7.57,0,0,1,1.12-.73l-1.68-.18,3.72-1.77.34-.71a8.67,8.67,0,0,0,.71-.76c-8.33-1.25-21.23,2.64-25.06,3.88l-.79.26.13-.81c.37-2.39.67-4.72.9-7.11l0-.36.35-.08c1.41-.34,2.88-.73,4.08-1,1.61-.43,2.28-.6,2.59-.64.71-.26,2.28-1,2.76-1.21l.45-.77,1.94-.49-.05-.48,1-.62-1-.07,3.13-1.72.25-1.36c.09-.17.18-.36.25-.52h-.07a132.65,132.65,0,0,0-14.27,1l-.62.08.05-.62c.13-1.52.24-2.91.3-4.42,0-.23,0-.48,0-.73s0-.46,0-.69v-.43l.43-.07,5.76-.93c4.06-.66,5.51-.89,5.92-.93s1.5-.61,2.4-1l.06-.7.56-.29-.8,0,1.21-.84c.55-.38,1.21-.86,1.31-1a6.73,6.73,0,0,1,1.7-1.27c0-.21,0-.49,0-.76h-.43c-4.68-.08-17.09-.28-23,.49A11.18,11.18,0,0,0,148.72,139Z"/><path class="cls-2" d="M72.71,182.13a1.93,1.93,0,0,1-.86-.23c-2.1-1-5.06-5.52-5.1-8.49a2.72,2.72,0,0,1,1.38-2.62,3.67,3.67,0,0,1,.6-.37l0-.42c.8-10.29,2.29-29.44.36-33.31l-.23-.46.47-.22c.2-.09,4.88-2.29,8.25-.17,2.1,1.32,3.16,4,3.16,8,0,7-1.39,15.62-2.64,22,6.69-3,11.9-4.27,15.92-4l.24,0,.27.4-.06.26c-.07.23-.24.36-.51.49.61.16,1,.32,1.12.74s-.1.89-.65,1.64l.06,2.17-.67,1.34.56.28-.54.5a4.15,4.15,0,0,1-1.28.83l-.14,0c-.8.18-10,4.72-19,11.43A1.17,1.17,0,0,1,72.71,182.13Zm-2.49-45.4c1.75,4.94.37,22.62-.46,33.34l-.08,1-.29.12a3.3,3.3,0,0,0-.73.41,1.76,1.76,0,0,0-.91,1.76c0,2.72,2.9,6.78,4.54,7.6.24.12.44.16.51.1,8.6-6.42,18-11.24,19.5-11.61h0a1.15,1.15,0,0,0,.28-.14l-.09,0,1-2L93.44,165l.11-.14a4.43,4.43,0,0,0,.52-.83l-.56-.16c-.62-.16-1-.26-1.15-.58l-.09-.19.07-.26,0-.08c-3.8.12-8.65,1.54-14.72,4.31l-.9.41.2-1c1.28-6.36,2.81-15.47,2.81-22.72,0-3.58-.9-6-2.69-7.1C74.72,135.21,71.41,136.27,70.23,136.73Z"/><path class="cls-2" d="M94.49,182h-.43l-.07-.42c-.15-.93-.22-5.54-.32-11.91-.17-11.39-.41-27-1.29-31.55a1,1,0,0,1,.17-.77,1.63,1.63,0,0,1,1.07-.73c1.59-.4,4.62-.79,6.94,1.07,2.08,1.68,3.05,4.76,2.91,9.17h0c-.47,12.3-1.73,26.9-1.74,27l-.11,1.28-.53-.69-.15.74-.77.19-.75,2.14-1.81,1.06-1.29,1.74-.3-.26-.35,1C95,182,94.61,182,94.49,182Zm1.72-44.7a10,10,0,0,0-2.38.31.59.59,0,0,0-.47.36c.9,4.62,1.14,20.27,1.31,31.69.07,4.58.13,8.67.22,10.64l.59-2,.66.58.84-1.08,1.58-.93.81-2.3.67-.17.45-2.27.31.39c.32-3.83,1.24-15.56,1.63-25.71h0c.13-4.07-.72-6.88-2.54-8.35A5.79,5.79,0,0,0,96.21,137.31Z"/><path class="cls-2" d="M108,181a3.16,3.16,0,0,1-2.43-1.08c-1.54-1.72-1.78-5.28-.54-8.1l.07-.17.6-.3,0-2.25c.06-10.66.16-26.78-.67-31.46a1.53,1.53,0,0,1,1.19-1.53c1.69-.41,4.81-.8,7.13,1.13,2,1.68,2.91,4.73,2.65,9.05-.45,8.12-1.29,16.26-1.78,21.12l-.2,2c5.86-.38,12.77.77,14.17,3.24l.19.34-.1.11.83,1.09-.57.13c.68,1,.57,1.37.52,1.51v0c-.14.38-.56,1.87-.71,2.42l-.15.57-1-.45c-4.89-.67-10.74.13-17.89,2.45A4.37,4.37,0,0,1,108,181Zm-2.12-8.61c-1,2.42-.81,5.47.44,6.85a2.38,2.38,0,0,0,2.68.58c7.32-2.38,13.35-3.2,18.42-2.48l.14,0c.17-.58.41-1.46.55-1.85a6,6,0,0,0-.79-1.28l-.49-.63.54-.12-.3-.39.15-.18c-1.35-1.83-7.72-3-13.7-2.51l-.6.05.32-3.17c.5-4.86,1.33-13,1.78-21.08.24-4-.53-6.75-2.29-8.22-2-1.65-4.74-1.29-6.21-.93a.71.71,0,0,0-.46.42c.84,4.73.75,20.26.68,31.6l0,2.87Z"/><path class="cls-2" d="M128.83,181a3.16,3.16,0,0,1-2.43-1.08c-1.54-1.72-1.78-5.28-.54-8.1l.07-.17.6-.3,0-2.25c.06-10.66.16-26.78-.67-31.46a1.53,1.53,0,0,1,1.19-1.53c1.68-.41,4.81-.8,7.13,1.13,2,1.68,2.91,4.73,2.65,9.05-.45,8.12-1.29,16.26-1.78,21.12l-.2,2c5.85-.38,12.77.77,14.17,3.24l.19.34-.1.11.82,1.08-.56.13c.68,1,.57,1.37.52,1.51v0c-.14.38-.56,1.87-.71,2.42l-.15.57-1-.45c-4.89-.67-10.74.13-17.89,2.45A4.37,4.37,0,0,1,128.83,181Zm-2.12-8.61c-1,2.42-.81,5.47.44,6.85a2.38,2.38,0,0,0,2.68.58c7.32-2.38,13.35-3.2,18.42-2.48l.14,0c.17-.58.41-1.46.55-1.85a6,6,0,0,0-.79-1.28l-.49-.63.54-.12-.3-.39.15-.18c-1.35-1.83-7.72-3-13.7-2.51l-.6.05.32-3.17c.5-4.86,1.33-13,1.78-21.08.24-4-.53-6.75-2.29-8.22-2-1.65-4.74-1.29-6.21-.93a.71.71,0,0,0-.46.42c.84,4.73.75,20.26.68,31.6l0,2.87Z"/><path class="cls-2" d="M149.61,180.46c-.85,0-1.78-.87-2.58-2.47-1.33-2.65-1.65-6,.39-7.09a6,6,0,0,1,1-.45c0-1.64,0-3.46,0-5.38,0-9.78.1-23.18-.77-26.31l-.12-.43.41-.17a12,12,0,0,1,5-.76c5.82-.79,18.3-.58,23-.5l1.64,0-.18.63a6.7,6.7,0,0,0,0,1.4l0,.35-.32.14a6.07,6.07,0,0,0-1.7,1.2l-.3.24,1.65.08-3.41,1.75-.06.75-.28.12c-.25.1-2.43,1-2.8,1.15l-.16,0c-.25,0-3,.46-5.87.93l-5.35.86c0,.11,0,.22,0,.32s0,.46,0,.69c-.05,1.34-.14,2.57-.25,3.87a126.77,126.77,0,0,1,14.52-.89h.5v.5a4,4,0,0,1-.5,1.42l-.27,1.6-.59.32.6,0-3,1.9.07.72-2.38.6-.39.67-.14.07c-.09,0-2.2,1-3.05,1.34l-.17,0c-.19,0-1.33.32-2.44.62s-2.45.65-3.75,1c-.2,2-.44,4-.75,6,4.77-1.51,17.42-5.09,25.47-3.55l.41.08v.42c0,.5-.65,1.24-1.22,1.79l-.34.8-.93.44.12.92a11.77,11.77,0,0,0-2.51,1.37,6.37,6.37,0,0,0-1,1,3.2,3.2,0,0,1-1.25,1l-.18,0a116,116,0,0,0-25.18,8.66A1.22,1.22,0,0,1,149.61,180.46ZM148.72,139c.8,3.88.75,16.17.7,26.13,0,2.06,0,4,0,5.74v.36l-.34.12a6,6,0,0,0-1.16.5c-1.41.74-1.08,3.56,0,5.75.73,1.45,1.53,2,1.78,1.89a114.55,114.55,0,0,1,25.5-8.75,2.56,2.56,0,0,0,.8-.72,7.35,7.35,0,0,1,1.12-1.1,7.57,7.57,0,0,1,1.12-.73l-1.68-.18,3.72-1.77.34-.71a8.67,8.67,0,0,0,.71-.76c-8.33-1.25-21.23,2.64-25.06,3.88l-.79.26.13-.81c.37-2.39.67-4.72.9-7.11l0-.36.35-.08c1.41-.34,2.88-.73,4.08-1,1.61-.43,2.28-.6,2.59-.64.71-.26,2.28-1,2.76-1.21l.45-.77,1.94-.49-.05-.48,1-.62-1-.07,3.13-1.72.25-1.36c.09-.17.18-.36.25-.52h-.07a132.65,132.65,0,0,0-14.27,1l-.62.08.05-.62c.13-1.52.24-2.91.3-4.42,0-.23,0-.48,0-.73s0-.46,0-.69v-.43l.43-.07,5.76-.93c4.06-.66,5.51-.89,5.92-.93s1.5-.61,2.4-1l.06-.7.56-.29-.8,0,1.21-.84c.55-.38,1.21-.86,1.31-1a6.73,6.73,0,0,1,1.7-1.27c0-.21,0-.49,0-.76h-.43c-4.68-.08-17.09-.28-23,.49A11.18,11.18,0,0,0,148.72,139Z"/><path class="cls-2" d="M72.71,182.13a1.93,1.93,0,0,1-.86-.23c-2.1-1-5.06-5.52-5.1-8.49a2.72,2.72,0,0,1,1.38-2.62,3.67,3.67,0,0,1,.6-.37l0-.42c.8-10.29,2.29-29.44.36-33.31l-.23-.46.47-.22c.2-.09,4.88-2.29,8.25-.17,2.1,1.32,3.16,4,3.16,8,0,7-1.39,15.62-2.64,22,6.69-3,11.9-4.27,15.92-4l.24,0,.27.4-.06.26c-.07.23-.24.36-.51.49.61.16,1,.32,1.12.74s-.1.89-.65,1.64l.06,2.17-.67,1.34.56.28-.54.5a4.15,4.15,0,0,1-1.28.83l-.14,0c-.8.18-10,4.72-19,11.43A1.17,1.17,0,0,1,72.71,182.13Zm-2.49-45.4c1.75,4.94.37,22.62-.46,33.34l-.08,1-.29.12a3.3,3.3,0,0,0-.73.41,1.76,1.76,0,0,0-.91,1.76c0,2.72,2.9,6.78,4.54,7.6.24.12.44.16.51.1,8.6-6.42,18-11.24,19.5-11.61h0a1.15,1.15,0,0,0,.28-.14l-.09,0,1-2L93.44,165l.11-.14a4.43,4.43,0,0,0,.52-.83l-.56-.16c-.62-.16-1-.26-1.15-.58l-.09-.19.07-.26,0-.08c-3.8.12-8.65,1.54-14.72,4.31l-.9.41.2-1c1.28-6.36,2.81-15.47,2.81-22.72,0-3.58-.9-6-2.69-7.1C74.72,135.21,71.41,136.27,70.23,136.73Z"/><path class="cls-2" d="M94.49,182h-.43l-.07-.42c-.15-.93-.22-5.54-.32-11.91-.17-11.39-.41-27-1.29-31.55a1,1,0,0,1,.17-.77,1.63,1.63,0,0,1,1.07-.73c1.59-.4,4.62-.79,6.94,1.07,2.08,1.68,3.05,4.76,2.91,9.17h0c-.47,12.3-1.73,26.9-1.74,27l-.11,1.28-.53-.69-.15.74-.77.19-.75,2.14-1.81,1.06-1.29,1.74-.3-.26-.35,1C95,182,94.61,182,94.49,182Zm1.72-44.7a10,10,0,0,0-2.38.31.59.59,0,0,0-.47.36c.9,4.62,1.14,20.27,1.31,31.69.07,4.58.13,8.67.22,10.64l.59-2,.66.58.84-1.08,1.58-.93.81-2.3.67-.17.45-2.27.31.39c.32-3.83,1.24-15.56,1.63-25.71h0c.13-4.07-.72-6.88-2.54-8.35A5.79,5.79,0,0,0,96.21,137.31Z"/><path class="cls-2" d="M108,181a3.16,3.16,0,0,1-2.43-1.08c-1.54-1.72-1.78-5.28-.54-8.1l.07-.17.6-.3,0-2.25c.06-10.66.16-26.78-.67-31.46a1.53,1.53,0,0,1,1.19-1.53c1.69-.41,4.81-.8,7.13,1.13,2,1.68,2.91,4.73,2.65,9.05-.45,8.12-1.29,16.26-1.78,21.12l-.2,2c5.86-.38,12.77.77,14.17,3.24l.19.34-.1.11.83,1.09-.57.13c.68,1,.57,1.37.52,1.51v0c-.14.38-.56,1.87-.71,2.42l-.15.57-1-.45c-4.89-.67-10.74.13-17.89,2.45A4.37,4.37,0,0,1,108,181Zm-2.12-8.61c-1,2.42-.81,5.47.44,6.85a2.38,2.38,0,0,0,2.68.58c7.32-2.38,13.35-3.2,18.42-2.48l.14,0c.17-.58.41-1.46.55-1.85a6,6,0,0,0-.79-1.28l-.49-.63.54-.12-.3-.39.15-.18c-1.35-1.83-7.72-3-13.7-2.51l-.6.05.32-3.17c.5-4.86,1.33-13,1.78-21.08.24-4-.53-6.75-2.29-8.22-2-1.65-4.74-1.29-6.21-.93a.71.71,0,0,0-.46.42c.84,4.73.75,20.26.68,31.6l0,2.87Z"/><path class="cls-2" d="M128.83,181a3.16,3.16,0,0,1-2.43-1.08c-1.54-1.72-1.78-5.28-.54-8.1l.07-.17.6-.3,0-2.25c.06-10.66.16-26.78-.67-31.46a1.53,1.53,0,0,1,1.19-1.53c1.68-.41,4.81-.8,7.13,1.13,2,1.68,2.91,4.73,2.65,9.05-.45,8.12-1.29,16.26-1.78,21.12l-.2,2c5.85-.38,12.77.77,14.17,3.24l.19.34-.1.11.82,1.08-.56.13c.68,1,.57,1.37.52,1.51v0c-.14.38-.56,1.87-.71,2.42l-.15.57-1-.45c-4.89-.67-10.74.13-17.89,2.45A4.37,4.37,0,0,1,128.83,181Zm-2.12-8.61c-1,2.42-.81,5.47.44,6.85a2.38,2.38,0,0,0,2.68.58c7.32-2.38,13.35-3.2,18.42-2.48l.14,0c.17-.58.41-1.46.55-1.85a6,6,0,0,0-.79-1.28l-.49-.63.54-.12-.3-.39.15-.18c-1.35-1.83-7.72-3-13.7-2.51l-.6.05.32-3.17c.5-4.86,1.33-13,1.78-21.08.24-4-.53-6.75-2.29-8.22-2-1.65-4.74-1.29-6.21-.93a.71.71,0,0,0-.46.42c.84,4.73.75,20.26.68,31.6l0,2.87Z"/><path class="cls-2" d="M149.61,180.46c-.85,0-1.78-.87-2.58-2.47-1.33-2.65-1.65-6,.39-7.09a6,6,0,0,1,1-.45c0-1.64,0-3.46,0-5.38,0-9.78.1-23.18-.77-26.31l-.12-.43.41-.17a12,12,0,0,1,5-.76c5.82-.79,18.3-.58,23-.5l1.64,0-.18.63a6.7,6.7,0,0,0,0,1.4l0,.35-.32.14a6.07,6.07,0,0,0-1.7,1.2l-.3.24,1.65.08-3.41,1.75-.06.75-.28.12c-.25.1-2.43,1-2.8,1.15l-.16,0c-.25,0-3,.46-5.87.93l-5.35.86c0,.11,0,.22,0,.32s0,.46,0,.69c-.05,1.34-.14,2.57-.25,3.87a126.77,126.77,0,0,1,14.52-.89h.5v.5a4,4,0,0,1-.5,1.42l-.27,1.6-.59.32.6,0-3,1.9.07.72-2.38.6-.39.67-.14.07c-.09,0-2.2,1-3.05,1.34l-.17,0c-.19,0-1.33.32-2.44.62s-2.45.65-3.75,1c-.2,2-.44,4-.75,6,4.77-1.51,17.42-5.09,25.47-3.55l.41.08v.42c0,.5-.65,1.24-1.22,1.79l-.34.8-.93.44.12.92a11.77,11.77,0,0,0-2.51,1.37,6.37,6.37,0,0,0-1,1,3.2,3.2,0,0,1-1.25,1l-.18,0a116,116,0,0,0-25.18,8.66A1.22,1.22,0,0,1,149.61,180.46ZM148.72,139c.8,3.88.75,16.17.7,26.13,0,2.06,0,4,0,5.74v.36l-.34.12a6,6,0,0,0-1.16.5c-1.41.74-1.08,3.56,0,5.75.73,1.45,1.53,2,1.78,1.89a114.55,114.55,0,0,1,25.5-8.75,2.56,2.56,0,0,0,.8-.72,7.35,7.35,0,0,1,1.12-1.1,7.57,7.57,0,0,1,1.12-.73l-1.68-.18,3.72-1.77.34-.71a8.67,8.67,0,0,0,.71-.76c-8.33-1.25-21.23,2.64-25.06,3.88l-.79.26.13-.81c.37-2.39.67-4.72.9-7.11l0-.36.35-.08c1.41-.34,2.88-.73,4.08-1,1.61-.43,2.28-.6,2.59-.64.71-.26,2.28-1,2.76-1.21l.45-.77,1.94-.49-.05-.48,1-.62-1-.07,3.13-1.72.25-1.36c.09-.17.18-.36.25-.52h-.07a132.65,132.65,0,0,0-14.27,1l-.62.08.05-.62c.13-1.52.24-2.91.3-4.42,0-.23,0-.48,0-.73s0-.46,0-.69v-.43l.43-.07,5.76-.93c4.06-.66,5.51-.89,5.92-.93s1.5-.61,2.4-1l.06-.7.56-.29-.8,0,1.21-.84c.55-.38,1.21-.86,1.31-1a6.73,6.73,0,0,1,1.7-1.27c0-.21,0-.49,0-.76h-.43c-4.68-.08-17.09-.28-23,.49A11.18,11.18,0,0,0,148.72,139Z"/><path class="cls-3" d="M240.27,110.57a8.7,8.7,0,0,1,.21,2.49c.47,3.36.41,3.44.58,3.86.21,2.17.28,4.49.05,2l.26,3.12c.09,1,.08,2.09.13,3.13,0-1.25,0-2.5-.11-3.75a12,12,0,0,1,.13,1.38l0,2.14c0,1.52.06,3.06.13,3.65-.07-2.26-.07-4.53-.19-6.79l.06.34c-.14-1.54-.33-4.54-.38-5.59a4.67,4.67,0,0,1,.14,1.25c0-1-.14-1.83-.22-2.46l-.19-1.44a7.58,7.58,0,0,0-.21-1.1,5.79,5.79,0,0,1-.19-.84l-.16-1.11-.35-2Z"/><path class="cls-3" d="M239.47,103.61l-.78-2.77c-.27-1.59-.69-3.14-1.05-4.71-.09,0-1-3.41-.52-1.09.13.45.38,1.33.56,2a29.24,29.24,0,0,1-.95-3.08c-.4-1.3-.78-2.34-.66-1.64.63,1.79.84,2.88,1.11,3.75s.46,1.58.83,2.69c.4,1.7.66,3.18.92,4.43l.34,1.7.19,1.38c.19,1,.29,1.14.53,2.44l-.15-.88.18-.18c-.23-1.07-.33-2.11-.57-3.3.43,1.83.76,3.68,1.14,5.52-.05-.91-.31-2.74-.57-4.62s-.73-3.77-.88-4.87C239.44,103.19,238.59,98.32,239.47,103.61Z"/><path class="cls-3" d="M240,108.77l0,.14Z"/><path class="cls-3" d="M30.41,195a5.38,5.38,0,0,0,1.12,1.28c-1.28-1.8-2.58-3.57-3.73-5.46-.59-.93-1.19-1.85-1.77-2.79l-1.63-2.87c.1.42,1.85,3.81.53,1.63a20.87,20.87,0,0,0,2.78,4.28l-.67-.71a18.37,18.37,0,0,1,1.84,2.94c.3.59.18.7-.44-.09l.15.21c1.89,2.14,3.72,4.29,5.74,6.28C32.46,197.28,32.57,198.08,30.41,195Z"/><path class="cls-3" d="M239.1,148c-.3,1.7-.32,1.92-.27,1.73Z"/><path class="cls-3" d="M35.71,201.15c.61.64,1.29,1.21,1.93,1.81C36.9,202.21,36.19,201.61,35.71,201.15Z"/><path class="cls-3" d="M21.63,188.31s0,0,0,.06l.75,1,0,0Z"/><path class="cls-3" d="M84.92,232.4l.81.22C85.44,232.53,85.17,232.46,84.92,232.4Z"/><path class="cls-3" d="M5.33,154.57l1,3L6.89,159l.58,1.45c-.42-.74.58,2.09,0,.9.18.44,1,2.53.83,1.93l-.42-1.2c1.5,3,1,1.07,3.19,6a28.71,28.71,0,0,0-1.28-3.65c-.36-.94-.72-1.67-1.1-2.49l-.57-1.52c-.78-1.56-1.43-3.17-2.14-4.77Z"/><path class="cls-3" d="M200.8,220.76v.1C200.82,220.8,200.82,220.78,200.8,220.76Z"/><path class="cls-3" d="M200.78,221.26l0-.4C200.64,221.19,199.76,222.1,200.78,221.26Z"/><path class="cls-3" d="M34.92,200.54a3.08,3.08,0,0,1,.79.61l-1.39-1.41Z"/><path class="cls-3" d="M31.52,197.49l-2.93-4L27.44,192C28.49,193.62,29.89,195.37,31.52,197.49Z"/><path class="cls-3" d="M77.91,229.59c4.68,1.67,4,1.62,2.73,1.41s-3.24-.7-1.13.2a15.32,15.32,0,0,0,3.06.78c.81.13,1.5.22,2.34.42-3.82-1-3.45-1.25-3.07-1.47s.72-.41-3-1.66a12.25,12.25,0,0,1,3.63.63A41.77,41.77,0,0,1,87,231.27c1.35.67.66.67-.47.49a9.82,9.82,0,0,0-3.13-.35c3.08.82,2.57.58,4,.54a46.18,46.18,0,0,0,7.21,1.36c1.15.15,2.21.34,3.16.53a7.74,7.74,0,0,1,2.45.82c3.54.37,3.4-.16,5.49-.4.28-.44-1-.67-2.48-.87a13.27,13.27,0,0,1-3.73-1c.25.1.73.31.56.41-1-.21-2-.33-3-.58,1.37.39,1.24.54.54.64a14.36,14.36,0,0,1-2.69-.12c-1.11-.18-3.34-.56-3-.73.57.08,1.16.1,1.73.15a27.91,27.91,0,0,0-3.51-.6,12.35,12.35,0,0,1-3.55-.84c-.06-.19.82,0,1-.11a26.56,26.56,0,0,1-4.05-.65c-1.44-.28-3-.76-4.89-1.26l2.41.12a24.57,24.57,0,0,1-6.67-1.93A61.66,61.66,0,0,1,67,223.27c.44.33,1.3.8.71.64-2.66-1.2-4.37-2.61-3-2.19a16.53,16.53,0,0,1-2.66-1.31c-1-.63-2.18-1.39-3.38-2.16s-2.33-1.66-3.46-2.4c-.55-.38-1.09-.73-1.6-1.05s-.95-.65-1.37-.9c-1.29-.78-2.62-1.54-3.86-2.4s-2.49-1.74-3.73-2.63c-2.4-1.87-4.79-3.79-7-5.9.49.48,1,1,1.52,1.56.42.74.79,1.27.79,1.36s-.41-.21-1.5-1.21a12.16,12.16,0,0,0,1.91,1.64A24.9,24.9,0,0,1,43,208.74c-1.29-1.09-1.93-1.08,1,1.85a61.89,61.89,0,0,0,5.63,4.49c.92.64,1.8,1.29,2.71,1.86l2.73,1.64c1.78,1.11,3.69,2,5.58,3,.94.5,2,.92,3,1.39l3.14,1.42a19.13,19.13,0,0,0,3.84,2.22c1,.55,2.22,1,3.31,1.51s2.12,1,3,1.28A10.23,10.23,0,0,1,74,228.7c-1.12-.4-2.42-.86-3.68-1.45.76.43,1.87.87,3,1.4s2.31,1.09,3.35,1.47Z"/><path class="cls-3" d="M56.48,219.75c.19.17.41.32.62.49A6,6,0,0,0,56.48,219.75Z"/><path class="cls-3" d="M69.57,226.86s0,0-.05,0l.8.37Z"/><path class="cls-3" d="M36,202.79c-.47-.41-.78-.75-1.21-1.19.25.28.56.65.89,1S36.17,203,36,202.79Z"/><path class="cls-3" d="M35,200.9l.29.19-.41-.55C34.84,200.52,34.85,200.61,35,200.9Z"/><path class="cls-3" d="M114,242.74l1-.09A2.29,2.29,0,0,0,114,242.74Z"/><path class="cls-3" d="M88.12,233.77c-3.36-.87-.67.67-5.35-.87l1.36.5c-.87-.21-1.88-.5-3-.84s-2.25-.83-3.43-1.28c-2.39-.87-4.72-2.07-6.66-2.91.53,0-2.15-1.4-1.53-1.5l-3.76-1.76a22.35,22.35,0,0,0-2.87-1.26c-1.52-1-3.94-2.25-5.78-3.62.7.69-3.09-1.32,1.7,1.61-.39-.23-.18,0-.57-.26,2.82,2.27,4.37,2.55,7,4.13,1.48,1.12-2.78-1.27-1.32-.31.43.23.91.5,1.43.8l1.68.89c1.17.61,2.38,1.3,3.51,1.85,2.29,1.06,4.14,1.82,4.22,1.36a13.31,13.31,0,0,1,3.59,1.81,15.07,15.07,0,0,1,1.94.48c.72.22,1.53.43,2.36.71,1.66.53,3.43,1.21,5.13,1.7,3.35,1.11,6.25,1.76,6.44,1l-2.94-.58c-1.11-.27-2.33-.53-3.51-.7Z"/><path class="cls-3" d="M40,207.25l.48.51Z"/><path class="cls-3" d="M18.82,168.2l1,1.18,1,2.7c.32.83.66,1.59,1,2.31l.86,2.06c.26.66.53,1.29.84,1.89L25.24,182c.66,1.28,1.43,2.62,2.31,4.22.21.52-.25-.23-.49-.61.32.55.64,1.15,1,1.76l1.17,1.85c.8,1.27,1.61,2.6,2.51,3.81s1.72,2.44,2.54,3.48,1.6,1.93,2.22,2.62l1,1.25,1.13,1.37c.67.84,1.05,1.39.46.83.56.57,1.2,1.21,1.8,1.9,0,.3-1.41-1.48-1.55-1.43a5.51,5.51,0,0,0,.79.87c-.93-.81.39,1.36-3.39-2.94-.53-1,.07-.21.83.59s1.57,1.71,1.3,1.08c-1.25-1.42-1.24-1.14-1.39-1.23-1.56-1.84-1.39-1.89-1.25-1.85a22.62,22.62,0,0,1-1.58-1.91c-.32-.41-.65-.82-1-1.19a10.55,10.55,0,0,0-.79-.94c-2.74-3.81.42,0-1.35-2.48-.46-.4-.94-.78-1.38-1.2l-2.65-4.35c-1.88-3.17-1.92-2.85-2-2.63s-.14.19-.47-.21a18,18,0,0,1-2-3.14c.36.44.24-.15-.16-1.29-.2-.57-.48-1.28-.8-2.07s-.62-1.7-1-2.61c.24.54.54,1.18.87,1.89s.77,1.45,1.18,2.23l2.37,4.53c-1.77-3.9,2.91,5.11,2.18,3a45.42,45.42,0,0,1-4-7.31l.43.79c-.6-1.33-1.31-2.4-1.95-3.67a36.42,36.42,0,0,1-2-4.56c-.7-1.87-.44-1.57-.21-1.29A17.81,17.81,0,0,1,18.82,168.2Zm1.57,4c.29.84.65,1.66,1,2.48C21.18,174.11,20.77,173.21,20.38,172.25Z"/><path class="cls-3" d="M226.65,66.85l.34.79C226.93,67.46,226.8,67.16,226.65,66.85Z"/><path class="cls-3" d="M17,69.28l.84-1.45C17.5,68.38,17.24,68.85,17,69.28Z"/><path class="cls-3" d="M36.25,35.71l1.58-2.06A11.87,11.87,0,0,0,36.25,35.71Z"/><path class="cls-3" d="M216.19,50.34l0-.07-.27-.27Z"/><path class="cls-3" d="M106.36,4a7.86,7.86,0,0,0,1.44.17C107.7,4,107.17,3.93,106.36,4Z"/><path class="cls-3" d="M36,36.09l.13-.09.16-.29Z"/><path class="cls-3" d="M7.24,83.23,7,84.32A7.47,7.47,0,0,0,7.24,83.23Z"/><path class="cls-3" d="M11.15,82.22c-.1.38-.19.74-.24,1Z"/><path class="cls-3" d="M3.41,138.82,3.81,141C3.65,139.94,3.53,139.3,3.41,138.82Z"/><path class="cls-3" d="M8.51,87.61a3,3,0,0,0,0,.39C8.61,87.69,8.59,87.52,8.51,87.61Z"/><path class="cls-3" d="M231.25,80l-.05-.12-.07,0Z"/><path class="cls-3" d="M233.76,84.69l.67,1.78C234.19,85.8,233.95,85.16,233.76,84.69Z"/><path class="cls-3" d="M139.56,6.31c.57.31,1.92.76,1.24.93C142,7.07,142,6.28,139.56,6.31Z"/><path class="cls-3" d="M223.54,72.36c.25.24.53.56.81.88C223.85,72.63,223.42,72.1,223.54,72.36Z"/><path class="cls-3" d="M224.35,73.24l.73.9C224.83,73.82,224.58,73.52,224.35,73.24Z"/><path class="cls-3" d="M124.36,18.46a1.13,1.13,0,0,0-.62-.21C123.83,18.47,124.05,18.51,124.36,18.46Z"/><path class="cls-3" d="M234.9,87.93c.21.28,2.76,8.15.78,1.48a10,10,0,0,1,.88,2.41c.19.63.4,1.31.57,1.94l.43,1.68c-.28-1.32.29.61.27.19-.25-.89-.53-1.95-1-3.41-.09-.71.64,1.49,1,3.27-.41-2.2.81,2.71.17-.39-.38-1.65-.85-3.14-1.27-4.55s-.8-2.74-1.28-4-.9-2.41-1.36-3.55-1-2.19-1.54-3.26l1.13,2.72,1,2.8.92,2.68.67,2.47-.58-1.2L235.4,88,235,86.9l-.71-2.08-.74-2.06-.9-2.25.7,1.84c.23.62.42,1.25.63,1.87l1.24,3.73c.45,1.79.48,2.1.3,1.62-.09-.24-.24-.68-.42-1.23l-.7-1.87A13,13,0,0,1,234.9,87.93Z"/><path class="cls-3" d="M231,83.85l0,.12c.05.1.11.23.15.29Z"/><path class="cls-3" d="M12.85,137.66l.19.63C13,137.75,12.89,137.59,12.85,137.66Z"/><path class="cls-3" d="M230.28,79.12h0Z"/><path class="cls-3" d="M13.62,121.76a.48.48,0,0,1,0,.09C13.64,121.79,13.63,121.79,13.62,121.76Z"/><path class="cls-3" d="M1.5,116.31a.25.25,0,0,0-.08.11C1.45,116.81,1.48,116.62,1.5,116.31Z"/><path class="cls-3" d="M13.57,121.75s0,0,.05,0S13.59,121.72,13.57,121.75Z"/><path class="cls-3" d="M43.35,52.36a3.92,3.92,0,0,0-.66.24C42.64,52.77,42.82,52.73,43.35,52.36Z"/><path class="cls-3" d="M32.5,63.28l-.24.17Z"/><path class="cls-3" d="M136,1.32c-.86-.09-1.51-.13-2.05-.13A14.54,14.54,0,0,0,136,1.32Z"/><path class="cls-3" d="M13.65,121.85a4.77,4.77,0,0,1,.09.76A4,4,0,0,0,13.65,121.85Z"/><path class="cls-3" d="M58.31,33.53l-.34.37.26-.13Z"/><path class="cls-3" d="M65.61,29.65a2.62,2.62,0,0,0-.32.56c1.17-.89,3-1.92,4.5-2.87s2.84-1.69,2.89-2.31a24.66,24.66,0,0,1-3.16,1.21c-1.27.42-2.34.72-2.11.23a16.19,16.19,0,0,1-3.08,1.65,12,12,0,0,0-2.45,1.32c3.17-1.37.76.54-1,2.06-1.92.87-.12-.9-1.74-.08l-3.88,2.9L58.79,32l-.49,1.54.29-.32a10.6,10.6,0,0,1,2.66-1.75c.48-.18.64-.08.8,0C62.41,31.67,62.7,31.78,65.61,29.65Z"/><path class="cls-3" d="M65.29,30.21a4.67,4.67,0,0,0-.83.8A2.28,2.28,0,0,0,65.29,30.21Z"/><path class="cls-3" d="M91.89,20.36c.33-.13.69-.28,1.13-.49Z"/><path class="cls-3" d="M25.57,189c0-.14-1.88-3.81-2-3.63l1.77,3.24C25.37,188.75,25.47,188.88,25.57,189Z"/><path class="cls-3" d="M168.79,19.63c-.42-.19-.85-.37-1.29-.54h-.29A5.63,5.63,0,0,0,168.79,19.63Z"/><path class="cls-3" d="M68.34,25.52a3.41,3.41,0,0,0-.94,1A3.42,3.42,0,0,0,68.34,25.52Z"/><path class="cls-3" d="M168.38,21.33c.46.41,1.15,1,1.14,1.32a27.29,27.29,0,0,0,3.16.85,16.74,16.74,0,0,1-2-.89c-.36-.18-.72-.39-1.09-.61S168.78,21.58,168.38,21.33Z"/><path class="cls-3" d="M172.77,23.53l-.1,0Z"/><path class="cls-3" d="M26.81,191.12l.63.9-.36-.45c.5.81,1,1.63,1.49,2.41l.71.93a1.92,1.92,0,0,0-.29-.31l.51.76c1.44,1.76,5,6.06,6.19,7.21.74.77,1.55,1.64,2.31,2.47l1.09,1.2,1,1c-1.08-1.07-2.4-2.6-2.11-2,.95,1.23,1.66,2.13,2.6,3.21a29,29,0,0,0,4.19,4c-.76-.72-1.53-1.42-2.27-2.15.9.76,1.83,1.49,2.74,2.23S47,214,48,214.66c.86.88.14.37-.9-.43s-2.31-2-2.74-2.24c1.05.88,2,1.8,2.9,2.62S49,216.23,49.81,217l1.13,1c.38.31.73.6,1.08.86a11.37,11.37,0,0,0,1.91,1.24c.1.45.19,1.32,3.17,3.37-1.9-1.81,1.91,1,.4-.52a16.74,16.74,0,0,1,2.07,1.39,4.08,4.08,0,0,0,1.5.85l-.37-.06c1.22.93,2.27,1.66,3.2,2.23a16.13,16.13,0,0,0,2.51,1.25c1.5.59,2.65.9,3.89,1.33,1.66.76,3.08,1.43,4.37,2.05l3.63,1.58,1.69.75,1.73.67c1.18.44,2.41.93,3.82,1.38a6.23,6.23,0,0,0,3.63,2.49c.6,0,2.22.23,3.78.43s3,.38,3.39.09c-4-1.29-3.51-.33-6-.85-1.83-1.26,0-.68-2.63-1.89.54.23,1.44.52,2.53.84s2.39.58,3.68.89l1.91.47c.62.16,1.24.26,1.8.4a13.45,13.45,0,0,1,2.66.84l-.9-.09a18.14,18.14,0,0,1,2.43,1c.7.32,1.35.65,2.09,1a13.19,13.19,0,0,0,2.66.79,19.5,19.5,0,0,0,4.16.16c1.1,0,2.19,0,3.29-.16-.16.07-.19.16-.28.22a25.88,25.88,0,0,1,4.63.74,16.67,16.67,0,0,0,5.1-.06c-.46,0-.17.15-.63.19a14.94,14.94,0,0,0,5-.16c1.58-.25,3-.58,4.29-.82,1.59.59-.32.74-1.25,1.33a39.79,39.79,0,0,0,15.53-3.86c1.27-.05,2.51-.24,3.77-.37-2.1.86-4.67,2.09-3.91,2.41,2-.51,1.57-.79,4.49-1.32a13.3,13.3,0,0,1-2.77,2.19c6.25-.6,1-2,5.54-1.5,1.89-.5,2.78-1.5,2.83-2.11,1.19-.09,2.4-.11,3.58-.27.07-.41,1.13-1,2.5-1.56l2.19-.89,2.13-.92c.2-.43-2.38.13-3.29.72,0-.56,2.68-1.93,4.47-2.6.63.63,3.49-.72,6-1.87s4.63-2.33,4-1c1.91-1,3.9-2.39,6-3.65,1-.65,2.05-1.38,3.08-2.06s2.06-1.36,3-2.11l2.84-2.12c.92-.68,1.74-1.42,2.55-2.08l2.22-1.88c.65-.61,1.24-1.18,1.75-1.69.83-.48,2-1.33,2.75-1.84s1.12-.7.46.29c1.28-1.2,2.36-2.3,3.34-3.35s1.78-2.12,2.63-3.13l1.28-1.53c.41-.53.84-1.07,1.3-1.61s.94-1.1,1.46-1.68l.81-.88.83-1c.23-.19-.27.42-.78,1.07s-1.07,1.31-.87,1.32c.34-.45.69-.88,1-1.3s.68-.86,1-1.28c.71-.84,1.45-1.67,2.24-2.56s1.55-1.91,2.42-3c.43-.56.88-1.16,1.33-1.8l1.35-2.11a3.84,3.84,0,0,0-.74,1.55,39.29,39.29,0,0,1,2.3-4.14c.6-.84-.67,1.19-.29.75a94,94,0,0,0,8.65-16.74l1.63-4.22L235,164.1c.53-1.46.89-3,1.37-4.54.22-.78.48-1.55.67-2.36l.59-2.44-.94,4a4.33,4.33,0,0,0-.2,1.25c.35-1.22.73-2.44,1-3.68.24-1.45,1-4.22,1.31-6.6.08-.28.32-1.42.14-.25a50.22,50.22,0,0,0,.85-5.09c.17-1.59.4-3.1.49-4.68l.31-5,.15-6.11,0,5.59c-.07,1.86-.2,3.72-.29,5.59l.29-2.76c-.11,1.64-.13,3.29-.33,4.92a35.82,35.82,0,0,0,.35-3.88,16.89,16.89,0,0,1,.16-2c0,.62-.14,2.12-.1,2.17a50.88,50.88,0,0,0,.26-5.17c0,1.4-.09,3.14-.2,5-.07,1-.09,2-.21,3l-.35,3.09c-.19,2.09-.58,4.16-.89,6.09s-.7,3.68-1,5.14c-.18.92.11-.79.12-1l-.72,3.14c-.27,1-.59,2.09-1,3.56-.36,1.86.46-1.37.87-2.81a13,13,0,0,1-.56,2.58c-.16.33-2.59,8.83-3.72,10.71-.76,2.1-1.1,3.08-1.22,3.48s0,.27.16.12c.26-.3.52-.65-1.21,3.39-.41.77-.87,1.52-1.34,2.26a91,91,0,0,1-8,15.57l.66-1c.29-.79-.54.27-1,.71-1.29,1.77-2.35,3.56-3.43,5.08a17.29,17.29,0,0,1-3,3.76,100.53,100.53,0,0,1-12,15.18c-.87.18.39-1.25,2-3a51.72,51.72,0,0,0,4.12-5c-1.17,1.3-2.42,2.5-3.64,3.76a19.15,19.15,0,0,0,3.9-5.2,46.51,46.51,0,0,0-3.48,4l-1.41,1.86c-.53.64-1.14,1.32-1.91,2.1.09-.41-.44-.14-1.93,1.2l0,.86c-.06,0-.25.1-.76.46-1.91,1.74-3.79,3.55-5.82,5.18,1.47-.78,1.92-.31,3.48-1.62-.78.16.49-1,2-2.29-1.1,1.46,1.73-1,1.9-.73L196.78,226c-1.63,1.31-3.12,2.54-4.14,3.43l-1.06,0c-1.65,1-3.25,2.21-4.79,3.23s-3,1.91-4.15,2.51l.54-.74-6.06,3.25a34.29,34.29,0,0,1-6,2.36c-.88.57-1.83,1.17-2.81,1.77s-2,1.22-3,1.75c-2,1.07-3.94,2.22-5.5,3.06-.76.66-3.81,1.37-7.25,1.83s-7.21,1-9.46,2c-.32,0,3.12-1.19,4.64-1.81a23.9,23.9,0,0,0-4,1c-1.11.32-2,.43-2.53,0,.88-.06,1.53-.12,2-.18a6.2,6.2,0,0,0,.93-.2c.33-.12.15-.2-.16-.28-.61-.17-1.7-.33-.17-.72-1.61.28-3.28.47-4.74.74-.73.13-1.4.26-2,.39s-1.1.21-1.5.32a6.32,6.32,0,0,1,2,0c.17.1,0,.27-.27.44-.44.32-.87.6,1.8.1a35.6,35.6,0,0,1-7.1,1.32,33,33,0,0,1-3.93.16c-1.31,0-2.62,0-3.87-.15.05-.38-.57-.6-2.42-.85l-1.52.46c-2.33-.23,4.53-.39-.16-.86a14.36,14.36,0,0,1-2,.13c-.73,0-1.51-.08-2.32-.16-1.61-.18-3.34-.33-5-.66s-3.17-.53-4.44-.64a6.32,6.32,0,0,0-2.87.1c-1.75-.71,0-.47,1.5-.31a4.68,4.68,0,0,0,1.63,0c.18-.1-.17-.26-1.49-.75a46,46,0,0,1,5.11.6,19,19,0,0,0,2.17.26,2.69,2.69,0,0,0,1.38-.24c-1.57,0-1.83-.26-2-.49s-.11-.46-1.1-.61l-3.5,0,.76.15a30.6,30.6,0,0,1-4.91-.56c-.89-.15-1.81-.33-2.75-.51l-2.85-.73-2.91-.78-2.88-.94-2.83-.92-2.69-1c-3.07-.76-5.62-1.58-8.31-2.47a52,52,0,0,1-8.67-4.16c1,.42-.29-.43-1.33-1.14a3.92,3.92,0,0,1-1-.82c0-.13.3,0,1.4.46-1.45-1-2.9-1.92-4-2.54a8.39,8.39,0,0,0-2-.94c2.54,1.73.87.64,3,2.12A25.44,25.44,0,0,1,62,230.84c-1.18-.82-2.32-1.67-3-2.21.62.45.41.25.58.28-2.92-2.22-1.57-.81-3.74-2.34a18.24,18.24,0,0,0-2.71-2.3c-1.27-1.06-2.7-2.24-3.58-3.07-1-.62-1.92-1.34-2.87-2,1.59,1.09-2.43-2.32-2.65-2.89a48.88,48.88,0,0,1-6.15-5.76c1.16,1.07-2.25-2.66-2.07-2.91-1-1.28-2-2.4-2.94-3.45s-1.78-2.1-2.65-3.1-1.7-2-2.52-3.13a35.07,35.07,0,0,1-2.44-3.6c.15.13.95,1.1,0-.45-.81-1.17-2.2-3.23-3-4.55l0,0,0-.07a4.16,4.16,0,0,0-.71-1c-.75-1.07-1.37-1.86-2.11-2.94s-1.57-2.48-2.88-4.72c-.05.45,2.06,4.28,3.09,5.86l1.06,1.27a12,12,0,0,0,1.44,2.7,27.37,27.37,0,0,1,1.56,2.3,24.62,24.62,0,0,1-2-2.62c-.74-1.14-1.58-2.47-2.44-3.87-1.65-2.85-3.39-6-4.65-8.36,1,3.16,4.38,9.48,7.77,14.7-.45-.79-.93-1.58-1.33-2.4.53.95,1.16,1.83,1.75,2.75-.48-.94-1-1.84-1.45-2.8.75,1.34,1.59,2.51,2.35,3.68l1.14,1.73,1.2,1.69c-.47-.66-.86-1.23-1.14-1.7s-.46-.84-.55-1.07c-.2-.46-.06-.38.42.41,1.83,3.13,2.32,3,3.88,5.25-.87-1.27-2-2.9-1.16-1.94a57.18,57.18,0,0,0,3.51,5c1,1.36,2,2.59,3.48,4.6,0-.4.93.83,2.11,2.08a20.9,20.9,0,0,0,2.81,2.81L38,211c1.16,1.14,2.31,2.28,3.55,3.33,2.91,3.46-3.08-2.56,1.56,2.51,4.56,4.42,4.79,3.91,8.61,7.08a33,33,0,0,1-3.23-2.23c-1.34-1-2.81-2.4-4.3-3.75l1.69,1.77c-.26-.19-.71-.57-1.27-1.07s-1.23-1.1-1.89-1.79c-1.32-1.37-2.83-2.81-3.75-3.86.41.4.7.67.9.83s.28.22.28.21-.34-.36-.79-.88c-.91-1-2.39-2.66-3-3.5-.44-.11,1.56,2-.92-.4l2.43,2.67c.7.77,1.43,1.68,2.88,3.17-1.59-1.59-2.65-2.82-3.6-3.72s-1.69-1.53-2.35-2.2-1.33-1.29-2.13-2.13c-.4-.42-.83-.91-1.31-1.47s-1-1.27-1.55-2.06c2.31,2.8-.49-1.22-.67-1.63l-1-1.2-1.1-1.48-1.92-2.54.46,1.25a30.11,30.11,0,0,1-2.9-4.64c-.39-.72-.81-1.44-1.31-2.26s-1.05-1.76-1.81-2.85c-.54-.49,2.31,4,1.8,3.23A52.86,52.86,0,0,1,17.25,184l-1.46-3.29c-.47-1.17-1-2.44-1.61-3.91-.24-.29-.5-.09-1.6-2.07.51.55-.07-1,1.14,1.23-.79-2-1.94-4.27-2.79-6,.81,2.09.56,1.69,0,.7s-1.23-2.65-1.46-3c-.81-2.19.51.58,1.08,1.89-.61-1.77-1-4-1.8-4.82a10,10,0,0,1,1.53,2.67c.38.79.79,1.68,1.19,2.57s.86,1.76,1.21,2.54l-.88-2.14a30.34,30.34,0,0,1,1.7,3.83c-.7-2.14-.4-2,0-1.6.08.28-.12-.13,0,.14.65,1.72,1.28,3,1.23,2.54.52.67.26.1-.09-.84s-.87-2.19-1-2.79c-.37-.86-.8-1.71-1.13-2.56l-2.21-4.3c-.72-1.45-1.38-2.92-2.1-4.4a30.53,30.53,0,0,1-1.36-4.74c-.27-1.34-.53-2.55-.75-4.09l-.55-.76a40.5,40.5,0,0,1-.85-4.48c-.08-1,0-1.3.47-.2-.1.14,0,.61.15,1.38a1.89,1.89,0,0,1,.23.48l.1.16c-.89-3.74-1.34-6.12-1.41-6.34,1.72,6.37.78.23,1.69,1.23-.48-2.14-.75-4.3-1.09-6.46.22,4-.36.1-.64-1.3A9.41,9.41,0,0,0,4,132.21c-.14-1.56-.43-3.37-.39-4.52l.1.17c.12-2.14,0-5.89,0-8.58-.16.12-1-3.41-1.35-5.15-.27,2.32-.33,2.79-.46,2.71s-.24-.69-.41-.52a8,8,0,0,0,0-1.46c-.11-.69-.26.89-.44,1,.11,2.52.12,5.06.32,7.22A24.11,24.11,0,0,0,2.26,128c.25-1.51-.39-2.59-.24-4.28a26.2,26.2,0,0,1,.5,4.24c.1,1.6.27,3.4.41,5.43l-.26,1.35.74,4.06c-.39-1.69-.69-.62-1.27-4.93-.36.57.65,4.27.88,6.89.21.43.46.86.69,1.28-.35-.48.66,5.08-.43,1.17-.58-2.13-1-4.29-1.41-6.46l-.06,1.84c-.29-1.84-.66-3.69-.84-5.55l.39,1.3c-1.22-9,.66-2.63-.42-11.68a23.36,23.36,0,0,1-.63-4.77,47.74,47.74,0,0,1,.26-6.82c0,4.09.5.49.84,2.07a32.79,32.79,0,0,0,.05-7.75c.52-1,.94-1.65.47,2,.81.62.36-4.87,1.39-5,.51-3,.66-5.16.8-6.91s0-3.13,0-4.56c.14-2.81.26-6,3.33-12.66l.2.68c.72-2.2,1.4-4.17,2.11-6s1.53-3.43,2.28-5.06l2.51-4.81c.86-1.66,1.88-3.32,2.89-5.25.73-.88,1.54-1.7,2.33-2.52l2.38-2.46c-.7,1.38-2.2,5.24-.67,4a14,14,0,0,0-3.44,3.72L16.6,62.77c-.5.72-1,1.45-1.53,2.15.1.47,1-.68,1.42-1.13-1,1.86-2,2.53-3.07,5.13.24,0,1.94-2.56,1-.47-.78,1-1.5,2.06-2.25,3.1a12,12,0,0,0-.74,2.56,8.23,8.23,0,0,0,0,1.4c0,.82-.06,1.7-1.31,4.37a15.17,15.17,0,0,1,.6-5.94c-.56,1.25-.33.35-.06-.57s.55-1.87-.14-.81A25.74,25.74,0,0,1,9,77.47c-.29.76-.64,1.54-.93,2.47s-.59,2-.88,3.29a7.9,7.9,0,0,1,.33-2.09L6.19,84.69c-.45,1.18-.81,2.4-1.21,3.6.49-.83.2.73-.1,2.43s-.46,3.57,0,3.32l.65-2.47L6,89.8l.68-2.48A56.12,56.12,0,0,1,9.32,80a28.37,28.37,0,0,0-.76,4.13c-.07.69-.12,1.36-.14,2a12.34,12.34,0,0,0,.09,1.57,1.65,1.65,0,0,0-.2.44c.31,1.56.89.28,2.11.74a18,18,0,0,1,1.31-5.37c.32-.83.61-1.7,1-2.62s.73-1.93,1.07-3.09c-.17-.58-.66,0-1.2.95a16.19,16.19,0,0,0-1.43,3.56c.3-1.41.72-2.77,1.11-4.16V79c1.41-3.32,3-6.53,4.75-9.7a9.07,9.07,0,0,0-1,3.79,21,21,0,0,1,2.3-3.54c-.8-.1-1.17-.52-.51-1.71,3.47-6,6.32-8.79,8.48-10.34l.41-.69c-.64.24-.29-1,.44-2.53s1.66-3.42,2-4.54c.59.62,2.7-2.44,4.32-3.68,0-1.47-2-1.34-4.18.08-2.38,4.29-1,2.67-1.42,5.24l-2,3.28c-.62,1.11-1.21,2.24-1.81,3.35l.34-1.84a25.51,25.51,0,0,0-2.76,4.28c-.63,1.19-1.07,1.91-1.4,1.53a13.24,13.24,0,0,1,1.56-3.36,15.08,15.08,0,0,0,1.68-3.3L21.83,57.2c1.75-4.27,2-1.4,4.67-6.13-1.86,1.07.23-.43,1.21-2.65-.81.54-2.19,2.51-3.41,4.05S22.17,55.23,22,54.11c.51-1.4,2.32-3.06,4.07-4.86.86-.92,1.79-1.81,2.56-2.73a9.18,9.18,0,0,0,1.72-2.85v.26a32.25,32.25,0,0,0,3.85-4.78C35,37.9,35.54,37,36.09,36a17.82,17.82,0,0,0,3-2.8c1-1.07,2-2.21,2.9-3.11l.24.39c.85-.89,1.77-1.69,2.67-2.53a7,7,0,0,1-2.24,2.31,34.4,34.4,0,0,0-3.27,2.7l.84.36a8.13,8.13,0,0,0-3.39,3.26c-.74,1.25-1.32,2.51-2,3.79A18.21,18.21,0,0,1,37,37.65c.88-.92,1.81-1.88,2.67-2.75,1.78-1.71,3.21-3.24,3-4.19.79-.36,1.63-.66,2.45-1l.73-1c1.85-.67,1,1.3-1.64,3.76-.6.25-.9.38-.87.12-.5.7-.92,1.43-1.61,2.3-.34.44-.76.9-1.26,1.43s-1.09,1.14-1.83,1.81l1.22-1.83c-.9.87-1.76,1.74-2.55,2.58l-1.14,1.23c-.35.41-.67.82-1,1.22a14.89,14.89,0,0,0-2.34,3.8A180.88,180.88,0,0,1,48.24,31a27.48,27.48,0,0,1,.9-3.87,8.93,8.93,0,0,0,.51-3.32c3.48-3.18,8.78-6.84,12.61-8.33l-.14.51a28.93,28.93,0,0,0,4.61-2.71c2.06-.56-.82,1.56.59,1.11C69.16,13.09,71.11,12,73,10.85c0,.48-1.29,1.32-2.85,2.19s-3.34,1.91-4.51,2.54c.41-.3,1.23-.91.9-.85A15.76,15.76,0,0,0,64.19,16c-.85.53-1.68,1.2-2.5,1.77-1.62,1.18-3.12,2.1-4,2-1.15,1,2.09-2.47-2.2.34a7.79,7.79,0,0,0-2.88,2.18,3.27,3.27,0,0,0-.6,1.42c.12.22,1.25-.49,2.28-.94s1.84-.81,1.22-.05c2.15-1.5,2.68-2.66,5.82-4-2.25,1.36-4.65,4.16-6.19,4.32a8,8,0,0,0-1.83,2.31,1.82,1.82,0,0,0-.22,1.43c.26.63,1.21.64,2.2,0-.9-.28,7.21-5.81,1.18-2.9A24.49,24.49,0,0,1,61,20l2.79-2c.91-.67,1.84-1.24,2.65-1.85l-.08.25c1.42-.83,2.81-1.74,4.28-2.48-.53.51-1.76,1.39-1.58,1.85,1.81-1.44,3.72-2.74,5.61-4.14-1.58,1.22-1,1.11.24.64a32.6,32.6,0,0,1,4-1.31c.4-1,2.71-2.51.16-1.93-2.89.6-1.42,1-3.84,2.08l3-2.53h.34c.59-.58,1.17-1.19,1.77-1.76C85.21,5.16,79,9.7,84.85,6.61l-1.22-1c.91-.29,1.86-.6,2.85-.84l3-.68c1-.21,2-.44,3.08-.63L95.65,3l3-.47c1-.12,1.9-.24,2.78-.38,1.78-.25,3.36-.61,4.67-.91a2.27,2.27,0,0,0-1.15,1.55c0,.5.4.92,1.44,1.16a31.84,31.84,0,0,0-4.64.62c-.9.17-1.84.34-2.74.54l-2.55.68c-.33,0,.57-.66,2-1.34A18,18,0,0,1,103.68,3c-1-.93-3.22-.21-5.2.53s-3.76,1.55-4.23.53c-9.09,1.7-6,3.82-13.67,5.17.24,1-1.86,1.28-1.92,2.23a5.37,5.37,0,0,0,2.67-.36c1.09-.32,2.36-.8,3.7-1.34l2-.84c.7-.27,1.41-.51,2.11-.74a28.31,28.31,0,0,1,4-1.07A5.31,5.31,0,0,0,91.7,8c1.72-.38,2.95-.62,4-.94s2-.69,3.16-1.15l-.33,0c4.05-1.81,2.77.22,5.32.19.93-.37,4.45-.52,3.79-1.17,1.56.13,3.1.22,4.64.38L112,4.14c2.58-.26,3.19.44,5.48-.41l.05-1c-2.16.05-4.33,0-6.49.16,3.25-.64.82-1,4.44-1.52-4,1.39,2.91.31,3.34,1.27L121.42,2l-.67.28a4.69,4.69,0,0,0,2.33,0A7,7,0,0,1,125.67,2a31.56,31.56,0,0,0-3.93-.74,12.58,12.58,0,0,0-4.52.33A49.77,49.77,0,0,1,126.53.32c2.85-.31,4.81.47,7.43.87-2.54,0-2.14.75-2.36,1.34s-1.05,1-6,.49c.19-.18,1-.11,1.31,0-1.32-1.38-6,.06-8.14.6.58.72-1.64.95,2.16,1.27-.63-.22.15-.65,1.56-.94a13.54,13.54,0,0,1,2.48-.3,14.32,14.32,0,0,1,2.78.25L127,5.44l2.61.17,1.3.09,1.3.15-.49,0c1.88,1.16,5.56.22,9,1.35,2.66-.34,12.31,2.23,8.44-.23,3,1.68,6,1.12,9.46,2-1.36-.61-2.72-1.29-4.12-1.82a27.52,27.52,0,0,1,2.91.27c.67.09,1.11.15,1.52.19a28.62,28.62,0,0,0,3.82-.1c.29.53,1.08,1.16.14,1.27,1.67.64,3.52,1.32,5.38,2.11l5.54,2.45c1.78.86,3.48,1.65,5,2.28a24.49,24.49,0,0,0,3.84,1.52,21.34,21.34,0,0,1,4.44,3.63c.63.6,1.34,1.18,2.23,1.89a33.38,33.38,0,0,0,3.49,2.38c.64.36.57-.05.78-.17s.72,0,2.41,1.65c.19.26-4-2,.08,1.09a12.06,12.06,0,0,1,2.48,1.6c.8.68,1.58,1.48,2.38,2.3L203.49,34a23.44,23.44,0,0,0,2.67,2.34c.8,1,1.91,2.27,2.71,3.28s1.28,1.72.77,1.61c-2.47-3.06-6.59-6.81-7.4-7.14.66,0-1.84-2.17.53-.48-4.14-4.37-3.09-2.32-7-6-.46,0,1.69,2.35,2.71,2.89-.26.36-2.39-1.15-4.07-2.29s-3-1.8-1.4.08a21,21,0,0,0,3,2c.91.49,1.74.87,2.5,1.31a12,12,0,0,1,4.42,3.8A26.58,26.58,0,0,1,200,33.36a10.56,10.56,0,0,0-3.44-2c1,.93,1.88,1.92,2.82,2.87.87.45,1.77.88,2.61,1.38l-.21,0a19.92,19.92,0,0,0,4.94,4.51c.66.42,1.32.81,2.11,1.36a16.68,16.68,0,0,1,2.79,2.43c-2-3.23,1.54-.31,0-2.7,2.82,3.27,4.65,5.86,4.1,6.38a19.87,19.87,0,0,0-1.58-1.7,11.92,11.92,0,0,0-.91-.82c-.42-.33-.52-.28-.62-.22s-.3.28-3-2.17c.31.54-.2.43-.42.6s-.13.58,1.25,2.23c3.59,3.28-.48-1.56,2.87,2,.14.26.28.53.09.48,1.66,1.51,1.51,2.14,3.47,4l-.5-.42c1.69,2.9,2.48,2.68,3.8,5.27-.15-.6.22-.28.74.39s1.19,1.68,1.77,2.35c-1.39-2.57-1.68-4.32-5-9.08-.73-.3-.65.18-2.24-1.57l2.31,3c-.54-.6-1-1-1.5-1.56l-2-3c3,3.45,2.07,1.48,3.56,2.78.6.87,1,1.49,1.32,2s.54.78.74,1.06a20.56,20.56,0,0,1,1.37,2.06c-.5.07,3.56,7.4,5.55,11.72-.34-.66-.82-1.48-1.06-1.94-1.95-2.85.87,2.26.81,2.44l1.32,2.13c-.24-.41-.62-.94-.18,0,1.63,3,1.83,2.64,3.27,5.71-.06.31-1.51-2.15-.73-.19a16.07,16.07,0,0,0,.68,2.27,47.06,47.06,0,0,0,1.9,4.78,17.44,17.44,0,0,1,1.1,2.59c-.07-.17-.16-.39-.19-.47l.86,2.84a31.24,31.24,0,0,1-1.37-3.55,21.73,21.73,0,0,0-1.52-3.5l-.34-.08a33,33,0,0,0-2.75-5.17c.64,1.35,1.05,2.16,1.49,3s.83,1.75,1.53,3.27c0,.5-1-1.6-1.19-1.9l.35.39a25.61,25.61,0,0,0-2.24-4.57l-1.31-2.23c-.5-.8-1-1.7-1.65-2.78-.36-.66-.11-.27,0-.17-1.11-1.68-2.2-3.33-3.22-5a26.26,26.26,0,0,0-3.54-4.69l.93.89-1.56-1.86c-.63-.7-1.37-1.47-2.15-2.29-1.54-1.68-3.46-3.43-5.37-5.15l-.19.12c.14.26-.11,0-.47-.37s-.88-.92-1.21-1.32h0l-2.92-2.35c-1-.72-1.88-1.37-2.69-2a11.8,11.8,0,0,0,1.57,1.82c.81.31,3.94,3.77,3.94,2.89a31.15,31.15,0,0,0,2.57,2.84,20.6,20.6,0,0,1,2.3,2.52c-.82-1.2-.38-.91.32-.28a18.72,18.72,0,0,0,1.91,1.75,11,11,0,0,0,1.44,2c.55.73,1,1.34.68,1.31a8.72,8.72,0,0,0-1.62-2.12c-1.13-1.05-.31.08.45,1.13s1.38,2.09.09.69a120,120,0,0,1,9.46,13.1L224.85,71a75.65,75.65,0,0,1,3.74,6.92c-.82-1.43-1.69-3.16-2.81-4.95-.28,0,2.44,4.44,2.39,4.73,1.12,1.72,2.08,3.53,3.1,5.33l-1.13-2.45a75.94,75.94,0,0,1,4.32,10.66c-.53-1.09-1-2.57-1.75-4.25a51.92,51.92,0,0,0-2.43-5.57c-1.51-2.81.53,1.91-.87-.76A31,31,0,0,0,231,84l.41,1.11-2.78-5.15c-.53-1-1.17-2.06-1.78-3.05s-1.22-1.93-1.8-2.74a4.34,4.34,0,0,0,.5.59c-.69-1.36-1.53-2.65-2.34-4a37.14,37.14,0,0,0-2.64-3.69,17,17,0,0,0,1.79,2.52c0,.14-1.71-2.11-2.44-2.89,1.5,2.31.05.57,1,2-.58-.69-1.08-1.33-1.59-2s-1-1.44-1.7-2.29.82.56.9.24a14,14,0,0,1-1.69-2.35,12.06,12.06,0,0,0-2.32-2.85c2.79,3.36-1.27-.49-2.45-1.44l.47.55a8.3,8.3,0,0,1-1.51-1.22,4.21,4.21,0,0,1-.93-1.28c1.4,1.13,2.42,2.52,2.39,1.9a24.12,24.12,0,0,0-2.65-2.57l1.07.68L208.88,54l-1-1-1.09-1a17.3,17.3,0,0,0-3.49-1.14c-.77-1.17-2.51-2.14-3.61-2.85l.59.25a16.48,16.48,0,0,0-1.72-1.58c-.71-.54-1.48-1.1-2.22-1.6s-1.44-.94-2-1.25a3.46,3.46,0,0,0-1.16-.44c-.31-.32.29-.17,1.2.14s2.08.87,3,1.22,1.52.53,1.25.13a6.66,6.66,0,0,0-1.13-1.07,30.69,30.69,0,0,0-2.92-2.15c-4-2.8-3.28-.73-5.9-1.79,0,0,.22,0,0-.25-1.74-1.18-2.2-.9-3.82-1.55A11.56,11.56,0,0,0,188,40a5.48,5.48,0,0,1-2.37-1.15,11.92,11.92,0,0,0-3-1.48c2.32.21-3.32-2.26-1.66-1.9a21.85,21.85,0,0,0-5.45-2.79,20.44,20.44,0,0,0-4.65-1,7.19,7.19,0,0,0-3.56-1.94,24.7,24.7,0,0,1-5-1.77,28.06,28.06,0,0,1,2.76,1c2.76.08-4.27-2-.23-1.37-.85-.16-.22.4.65.57,1.49.4,3,.65,2.76.15-1-.73-2.14-1.34-3.22-2l1.31.26c-1.67-.95-3.32-2-5-2.89-.21.12.24.48.46.67-6.18-2.6-13.78-3.78-19.51-4.7a1.73,1.73,0,0,1-1,.63,8.21,8.21,0,0,1-1.88.29c-1.48.1-3.34-.09-5.34-.09s-4.08-.17-6,0a15.34,15.34,0,0,0-4.71.73c1.22-.81,1.92-2.13,1.14-2.67,1-.11,3.22-1.11,5.62-.85.37.42,3.27,1.11,1.35,1.45,6.57.14-.81-1.2,1.19-2-.92,0-1.8-.06-2.64,0s-1.63.12-2.39.2a31.88,31.88,0,0,0-4.17.65l-3.61.85c-1.15.24-2.25.61-3.38.83l-.14-.3c-1.13.3-2.26.54-3.38.88,1.4-.08,2.11.33,2,.65s-1,.62-2.81.61l.42-.13a14.18,14.18,0,0,0-4.31.35c-1.68.4-3.48.87-5.06,1.1-.65.41-1.29.87-1.92,1.31-3.1.61-3.65-1-4.9-1.58a20.35,20.35,0,0,0-5.92,2.41c-1.59,1-3,1.9-4.49,2.93a9.94,9.94,0,0,0-2.07.32c-.86.18-1.81.43-2.58.66-1.55.42-2.48.56-.8-.62-2,1.21-2.38,2.48-3.22,3.72a5.4,5.4,0,0,1-1.9,1.72,10,10,0,0,1-1.72.74,22.55,22.55,0,0,1-2.45.77l1.45-1.53a83.24,83.24,0,0,0-10.11,6.83l-2.29,1.74c-.71.57-1.38,1.12-2,1.6a31.24,31.24,0,0,1-3.08,2.14c.35-1.72-1.79-.67-4.37.78s-5.41,3.46-6.6,3.26c.61.06-1.3,2.24-1.4,2.71a4.37,4.37,0,0,0-1.06.68,3.67,3.67,0,0,0-.88,1.33c1.15-1,1.2-.23,1.36.16s.38.39,2.08-1.89c-.24.76-.54,1.51-.89,2.33A21.26,21.26,0,0,1,42,57.8,46.19,46.19,0,0,1,37.67,64l-.62-.58,3.3-3.62c-.82,0,.89-1.89,1.37-2.84-.81.81-1.43,1.38-1.91,1.78a5.11,5.11,0,0,1-1,.77c-.45.23-.54,0-.62-.26-.15-.48-.27-.91-3.21,2.84-.11,1.06.07.45-1.22,2.56.66-.95.32-1.46-.8.05l-.52,1.82c-1.47,1-.95-.29-.21-1.54s1.5-2.56.26-1.68c.42-.84.93-1.84,1.5-2.8s1.17-1.92,1.66-2.77c.95-1.72,1.58-2.93.76-2.83A12.06,12.06,0,0,0,33.35,60a13.46,13.46,0,0,1-3,5.32l-.74.32c-1,2.06-.57,2.74-.88,4-.27,0-.76.32-1.54,1.53C26.7,73,26.12,74.47,25.68,76a44.44,44.44,0,0,0-1.19,4.67A48.78,48.78,0,0,1,26.77,76a28.76,28.76,0,0,1,1.88-2.7A61.61,61.61,0,0,0,33.46,66c-.61,1.36-4,7-3.21,7.9l-.65-.48a72.49,72.49,0,0,1-4.35,8.81c.21-.75.42-1.51.68-2.24a32.22,32.22,0,0,1-1.53,3.14c-.53.95-1.11,1.8-1.62,2.65a13.73,13.73,0,0,0-2,5.43,25.36,25.36,0,0,0,1.29-3.16c-.8,2.48-2,5.49-3.12,8.11-.23,2-.56,3.89-.75,5.84-.31-.13-1.35,3.42-1.36,1.59A19.61,19.61,0,0,0,16,106.3a19.18,19.18,0,0,0-.3,2.19c-.1,1.34-.12,2.45-.3,3.66-.71,2.08-.6,1.15-.43-.37s.62-3.61.23-3.9c-.39,1.45-.81,2.93-1.08,4.4s-.49,2.92-.69,4.3-.23,2.68-.31,3.85a27.12,27.12,0,0,0,0,3.06c.2-1.22.42-1.8.53-1.73a4.62,4.62,0,0,0-.31,1.52l-.2,2.41.26.93c-.42,2.24-.58,1.93-.68,0a19.55,19.55,0,0,0,0,3.45,13.1,13.1,0,0,1-.19,3.51,43.39,43.39,0,0,1,0-5.82,41.13,41.13,0,0,0,.24-4.49,43.49,43.49,0,0,1-.36,4.61c-.18,1.24-.26,2.28-.42,3.39a34.51,34.51,0,0,0-.31,3.8,57.58,57.58,0,0,0,.29,5.83c-.12.14-.55-1.51-.37.4.51,4.39.68,1.08,1.11,2.41a28,28,0,0,1-.33-4,21.69,21.69,0,0,1,.3-3l.27.88c-.11.14-.1,2.26-.15,2.89l.51.49c-.52-.2-.71,3.24-.18,5.87a7.3,7.3,0,0,1,.14-2.13c.09-.26.23-.28.48-.69a18.42,18.42,0,0,1,.43,4,17.5,17.5,0,0,0,.1,1.83,11.77,11.77,0,0,0,.54,2.49c-.24-.27-.85-3.88-.51-.72.46,2.58.74,2.16,1.16,3.86-.71-1.86-.89-1.3-1.73-3.32-.78-4.62-.28-1.87-1.1-6.37l.22,3.9c-.64-3.93-.88-2.79-1.08-3.09.63,6.84,1.38,5,2.12,9.3.66,2-.75-4,.15-.86.36,2,.48,2.23.64,2.49a11.25,11.25,0,0,1,1,2.79l-.34-.7a19.18,19.18,0,0,0,1.24,4.24c.31.84.44.26.76.36.16,0,.37.26.66.89.15.32.32.74.52,1.3s.44,1.26.75,2.11c-.2-.3-.3-.41-.33-.4-.84-1-1.56-2-2.37-2.95s-1.65-2-2.41-3c.52,1.82,1.18,3.67,1.78,5.59s1.43,3.83,2.16,5.81,1.66,3.93,2.58,5.89L22,182.46l.72,1.48.79,1.44c.32,1-.57-.29-1.46-1.81a19.61,19.61,0,0,0-1.75-3c-.61-1.2-1.12-2.44-1.64-3.68.16.05,1,2,1.78,3.41s1.33,2.42.67.72c-3.25-6.29-4.25-9.36-6.84-15.58A21.8,21.8,0,0,0,16,171c.49,1.15,1,2.4,1.48,3.57s1,2.32,1.37,3.36c-.72-1.7-1.45-3.08-2.08-4.45.77,1.92,1.66,3.86,2.53,5.89l1.49,3c.51,1,1,2.07,1.6,3.09l.63.86L22,184.38l-.77-1.54-.76-1.56c.47.94.94,1.83,1.38,2.64s.93,1.51,1.33,2.11a6.82,6.82,0,0,0,1.62,2l-.36-.65.84,1.25Zm210.7-34.65c0,.25-.07.45-.08.6C237.44,156.92,237.38,157.08,237.51,156.47ZM7.75,112.71a111.64,111.64,0,0,0-1.18,16.74c.23-2.45.62-4.71.9-6.46a16.28,16.28,0,0,1,.94-3.41c.24-.43.38-.05.37,1.43s-.06,4.07-.16,8.1l.11,1.05L9.12,121c-.1-1.38-.48-4.35-.64-7-.11-1.32-.23-2.55-.33-3.46A6.23,6.23,0,0,0,8,109.16c-.58.92-.32,2.43-.63,4.22Zm3-3.57c.74-3.06.29-2.41.08-3l-.49,3.28C10.46,109.06,10.6,108.88,10.71,109.14Zm-.24-2.82a4.66,4.66,0,0,1-.2.79Zm4,60.7-.11-.31c.23.71.45,1.43.71,2.17C15,168.59,14.84,168,14.49,167Zm-1.56-6.24-.5-.64.55,2.07A3,3,0,0,0,12.93,160.78Zm-2.6-20.33c-.54-1.24-.82-5.54-1.41-5.78-.16-.27-.16.64-.13,1.67L9,140c.09,0,.16.29.28.71,0-1.28,0-2.14.41-1.66a5.26,5.26,0,0,0,.25,3.12,9.35,9.35,0,0,1,.71,3.26C11.13,146.5,10.6,141.49,10.34,140.45ZM197.63,38.51a8.14,8.14,0,0,0,.42,1l-2.24-1.19c-.85-.71-1.61-1.44-2.35-2.16l-2.22-2a16.38,16.38,0,0,0-2.31-1.77,11.6,11.6,0,0,0-2.74-1.18,9.49,9.49,0,0,1-1.58-1.75,17.29,17.29,0,0,1-1-1.49,19.55,19.55,0,0,1,2.07,1.44c5.26,2.3,6.16,3.67,6.86,4.74a7.17,7.17,0,0,0,1.32,1.72A19.1,19.1,0,0,0,197.63,38.51Zm-45.2-24.4a1.13,1.13,0,0,0,.68-.1c-10.35-.43-18.47-.41-23.83-.74a4.51,4.51,0,0,0,1.35.64c.62.23,1.37.46,2.16.68,1.57.45,3.3.76,4.39,1.11q-1,.34-2.07.77l-1.17-.84-3.48.64c.92.72,3.67.78,5.45,1.4a28.87,28.87,0,0,1,3.35-.4l2.61-.27c.81-.05,1.51-.11,1.95-.19-.77-.23-1.53-.51-2.3-.71l-2.33-.62c1.26.36,7.55,1.12,10.06,1.49.07-.21-.91-.78-2-1.1s-2.35-.45-2.71,0c-.4-.79,4.59.08,1.58-1.22a23.76,23.76,0,0,1,6.64,1.12,57.37,57.37,0,0,1,5.62,2.08l.12,1.23c2.76,1.37,2.39-.66,5.64,1.12-4.32-1.21.29,1.41-3.09.38.93.77-.35,1.12,3,2.18a3.93,3.93,0,0,1,3.16.93,4.31,4.31,0,0,0,3,1.08c1.51,1.14-2.17,0,1.07,1.62,1,.24,1.81.37,2.4.45a4.12,4.12,0,0,0,1.29.05c.6-.1.78-.45,1.13-.85a7.92,7.92,0,0,0-3.94-1.25,7.79,7.79,0,0,1-3.47-.89c2.17.29,4.4.57,6.6,1a7.81,7.81,0,0,0-2.46-1.36,16.26,16.26,0,0,0,3.35.77c.57.06,1.1.14,1.58.22l-2.36-1.23c-.76-.37-1.46-.7-2.06-1a6.71,6.71,0,0,1-2.22-1.46l.67-.26a7.07,7.07,0,0,0-4.23-1.47c-.78-.3-1.58-.55-2.34-.78s-1.51-.37-2.16-.54c-1.3-.33-2.26-.64-2.5-1.09l1.35-.05c-1-.29-1.75-.54-2.43-.72l-1.89-.47-2.07-.55-1.34-.37ZM31.1,55.31a15.5,15.5,0,0,0,5-2.4,80.41,80.41,0,0,0,8.6-8l-.56.71a19,19,0,0,0,3.31-2.73c1-1,2-2.07,3-3.18A23.42,23.42,0,0,1,58,33.89a30.42,30.42,0,0,0-2.25,2.59c-.49.74-1,1.61-1.9,3.39l2.5-2.63c-.18,1.41,2.42-1.06,4.59-2.53l-1.17,2.36a17.51,17.51,0,0,0-3,1.67c-1,.69-1.73,1.33-1.59,1.4.31-.32-1,.18-2.69,1.08a22.73,22.73,0,0,0-4.83,3.62c.79.33,6.06-4.53,4.5-1.43a6.48,6.48,0,0,1,2.24-2,11.56,11.56,0,0,0,2.5-1.8c-1.87,2.16.15,1.34-1.11,3.06,1.21-1,2.36-2.09,3.62-3,.07,0-.23.33-.65.73s-.94.95-1.36,1.42c-.84,1-1.24,1.68.6.94a10.4,10.4,0,0,1,1.37-1.27c.59-.44,1.25-.88,1.86-1.32,1.22-.86,2.21-1.66,2-2.06l.25.17c3.09-1.67.58-1.94,4.57-3.73-.2-.44-1.09-.3-2.36.62-1,.89-.85,1.49-3,3.07-.7,0,0-.4.56-.84s1.1-.85,0-.86S57.58,41,58.41,38.76l3.05-1.87c-.22-.4.19-1,.64-1.5s.89-1,.65-1.29a12.26,12.26,0,0,1,2.83-1.63,7.66,7.66,0,0,0,2.74-1.84c.52-1-1.49-1.18,2.06-2.59a11.37,11.37,0,0,0,3.13-.72c.61-.21,1.25-.46,1.9-.73s1.35-.51,2-.79c1.36-.54,2.68-1.2,3.89-1.69s2.25-1,3-1.31L85.52,22l1.24-.74c-.46-.56-5.07,2-3.64.6l2-.92,2.08-.82-.2.47a24,24,0,0,0,4-1.87c-1.13,1.07-4.25,1.86-3.31,2.61,2-.44,2.43-.25,4.21-.95-.38.18-.69.37-.6.5,4.14-.69,3.58-2.2,4.52-2.81,1.91-1.13.79-1.23-.78-1.09s-3.59.48-3.47-.11c2-.66,4-1.37,6.06-1.9l3.07-.85c1-.26,2.07-.48,3.1-.72-1,.52-2,1-1.53,1.39,3.13-.07.22.78,4.46,0-.27-.7,1.06-1.09,2.82-1.46l2.83-.58a19.82,19.82,0,0,0,2.64-.63c1.49.47,1.78.56-1.35.82.22.45,1.37.5,2.65.44s2.69-.24,3.44-.19c.85-.25,2.33-.42,3.26-.65-1.26-.42-.75-1,2-1.45l.16-.19c-1.13-.1-2.42-.13-3.76-.23s-2.75-.21-4.09-.16c-2.69,0-5.18.18-6.54.87l.75-.56a18.84,18.84,0,0,0-4,.41,36.42,36.42,0,0,0-3.84,1.06,32.5,32.5,0,0,1-3.31.86A4.39,4.39,0,0,1,97.81,13c.06-.72-1.07.09-1.21-.9L94.79,13,93,13.88l.66-.66-3.17,1c-.53.17-1.06.33-1.58.52l-1.55.59.11-.23-3.6,2.52-2.73,2.14c.15.4.38.45-.45,1.11A11.74,11.74,0,0,1,78.46,22h0c-1.49.54-2.71.42-4.61,1,1.83-.86,3.65-1.75,5.49-2.58.18-.84-.59-1.39-3.54-.57,1.11-.54,1.36-1.27-.07-.7-.08.24-3.5,2.11-1.91,2-2.57,1.39-6.15,2.77-9.91,4.73-1,.46-1.89,1-2.83,1.57s-1.88,1.16-2.81,1.77a40.1,40.1,0,0,0-5.18,4.31c2.33-2.21,1.18-1.63.11-1.06-.54.28-1,.61-1,.54s.4-.52,1.82-1.61a13.08,13.08,0,0,0-1.48.75,7.63,7.63,0,0,0-1,.75,6.47,6.47,0,0,0-1.16,1.44A12.43,12.43,0,0,1,47.23,38c-.57,0,2.09-1.78,2.55-3.06a31.79,31.79,0,0,0-4.44,3.9,48.67,48.67,0,0,0-3.54,4.1c-1.13,1.35-2.16,2.78-3.29,4.2-.56.71-1.17,1.4-1.78,2.12s-1.23,1.47-1.92,2.21L34,51.21c-.46.62-1,1.26-1.44,2ZM23,69.06c-.68,1.39-1.42,2.77-2.07,4.23l.23-.4-1.58,4.38c1.54-2.41,3.09-3.66,1.62,0-.11-.43-1,.43-.5-.86a24,24,0,0,0-1.35,2c-.44.78-.88,1.6-1.21,2.32-.68,1.45-1,2.49-.17,2,1.19-5,1.71-.52,2.7-4.42-.27,2.22-1.44,4-2,5.93.15-1.06-.19-1.08-.77-.48a16.39,16.39,0,0,0-2,3.28c-.42,1.31-1.69,4.81-2.2,7,.83-.59.51,1.38,1.87-2.06a23.81,23.81,0,0,1-.68,2.43,23.45,23.45,0,0,1-1.1,3.08c.17-.92.56-2.5.32-2.45A27.36,27.36,0,0,0,12.18,99c-.2.76-.32,1.55-.48,2.31a2.06,2.06,0,0,1,.32-.51l-.12,2.65c.55-3.43.63-1.49.94-1.38-.62-.24-.61,2.14-.87,3.29L13.25,103a8.67,8.67,0,0,1-.66,2.47c-.25.82-.4,1.42,0,1.17.3-1.32.69-2.4.94-3.4s.51-1.88.71-2.75c.47-1.74.93-3.41,1.52-5.77l-1.12,1.73a8.72,8.72,0,0,1,1.75-4.21,11,11,0,0,0,1-1.47c.19-.33.38-.73.6-1.23s.51-1.07.8-1.78c.37-2.61,3.75-8.43,2.78-9,0,.84,2.69-2.95,3.26-5a21.42,21.42,0,0,1,1.77-5.14c.78-1.64,1.32-2.78.51-2a31.88,31.88,0,0,0-1.53,2.8,6.43,6.43,0,0,1-1.74,2.35l1.7-3.37c-.6.6-1.17,1.22-1.76,1.84C24.59,69.19,24,69,23,69.06ZM6.49,152.26l0,.15,0-.16Z"/><path class="cls-3" d="M232.1,82.12c.56,1,1.43,3.53,1.43,3a10.06,10.06,0,0,1-.87-2C232.25,82.11,231.9,81.35,232.1,82.12Z"/><path class="cls-3" d="M233.11,85.2c.11.16.13,0,.57,1.14l-1.23-3.11Z"/><path class="cls-3" d="M233.19,88.78a49.81,49.81,0,0,1,2,5.08c0,1.06-1.57-4.1-2.39-5.09.86,2.29,1.47,3.77,2.07,5.14s1,2.7,1.62,4.63c-.11-.49-.34-1.35-.62-2.36s-.59-2.19-1-3.27A19.61,19.61,0,0,0,233.19,88.78Z"/><path class="cls-3" d="M231.8,87c.39.82.81,1.63,1.16,2.46l-.07-.26c-.37-.83-.78-1.64-1.17-2.46Z"/><path class="cls-3" d="M203.55,32.92c.09-.52-1.54-1.42-2.33-2A12.39,12.39,0,0,0,203.55,32.92Z"/><path class="cls-3" d="M212.79,214.45a126.73,126.73,0,0,0,12.13-18.36c-1.55,2.72-3,5.38-4.95,8.28-.48.73-.94,1.51-1.47,2.27L216.82,209c-.6.82-1.18,1.73-1.87,2.61Z"/><path class="cls-3" d="M136,6.09c1.5,0,2.78,0,4,0l3.4-.08c1.1,0,2.2.07,3.41.16a29.84,29.84,0,0,1,4,.52,15.85,15.85,0,0,0-2.68-.85,22.32,22.32,0,0,0-2.36-.43c-.74-.09-1.43-.14-2.1-.17s-1.32,0-2,0a34.82,34.82,0,0,1-3.8,0,20,20,0,0,1-4.38-.67Z"/><path class="cls-3" d="M138.65,1.56c.44.65-.77.76-2,1s-2.44.33-2,.79c4.1.09,2-.93,5.7-.33Z"/><polygon class="cls-3" points="159.99 24.95 158.28 25 159.57 25.19 159.99 24.95"/><polygon class="cls-3" points="110.69 2.31 111.33 1.97 108.23 1.99 110.69 2.31"/><path class="cls-3" d="M112,1.64c-.22.11-.43.21-.65.33C111.55,1.84,111.76,1.74,112,1.64Z"/><polygon class="cls-3" points="157.32 26.53 159.47 27.42 160.74 27.3 157.32 26.53"/><path class="cls-3" d="M137.89,16.63l2.23-.09C139.68,16.55,136.74,15.72,137.89,16.63Z"/><polygon class="cls-3" points="92.11 5.3 89.34 6.57 89.67 6.6 92.43 5.33 92.11 5.3"/><path class="cls-3" d="M120.84,19.16c1.5.83-4.23.38-1.18,1.06C122.33,20,121.24,19.58,120.84,19.16Z"/><path class="cls-3" d="M88.25,18.91a4.52,4.52,0,0,0-1,.48C87.63,19.21,88,19,88.25,18.91Z"/><path class="cls-3" d="M88.25,18.91A19.94,19.94,0,0,0,91.32,18,5.5,5.5,0,0,0,88.25,18.91Z"/><path class="cls-3" d="M75.65,24.11l1-.39c-.83.84-.38.57.38-.15,1-.49.86-.72.91-.95l.51-.6-.73.67C76.1,23.43,75.13,23.91,75.65,24.11Z"/><path class="cls-3" d="M26,46.54c3-3.25,3.85-4,4.14-3.45,2.92-3,1.75-3.2,3.28-5.27-1.56,1.81-2.55,2.85-3.6,4S27.68,44.27,26,46.54Z"/><path class="cls-3" d="M33.37,37.82c.35-.41.71-.77,1.13-1.23A10.49,10.49,0,0,0,33.37,37.82Z"/><path class="cls-3" d="M92.7,25.51c-.64.55-1.25,1.14-1.87,1.7l.76-.4C92,26.38,92.32,25.92,92.7,25.51Z"/><path class="cls-3" d="M21.79,51.63a14.53,14.53,0,0,1,1.82-2.11C23.29,49,21.27,52.27,21.79,51.63Z"/><path class="cls-3" d="M41,46.63c.52-.06,2.23-2,3.09-2.62C43,45,41.27,45,41,46.63Z"/><path class="cls-3" d="M17,63.57c.43-.68,1.4-1.53,1.51-.83C18.88,61.61,18.85,59.7,17,63.57Z"/><path class="cls-3" d="M36,52l.53-.3c.51-.77,1-1.58,1.54-2.34C37.32,50.22,36.66,51.13,36,52Z"/><path class="cls-3" d="M49,51.23c.81-1.23-.33-.78-1.29-.48s-1.71.45-.07-1.49a9.46,9.46,0,0,0-2.1,1.79c-.19.28,0,.3.23.3.48,0,1.16-.1-.56,1.55C47.32,51.05,49,50.83,49,51.23Z"/><path class="cls-3" d="M45.2,52.91q-.47.39-1,.9C44.61,53.45,44.93,53.16,45.2,52.91Z"/><path class="cls-3" d="M18.47,85.29a8.66,8.66,0,0,0,.19-1A8.63,8.63,0,0,0,18.47,85.29Z"/><path class="cls-3" d="M35.68,64.8l.89-2.06,1-2c-1.4,2.63-5.63,8.64-4.49,8.83a21.52,21.52,0,0,0,3.32-5.46Z"/><path class="cls-3" d="M1.21,108l-.07-2.2L.77,108.5C1,107.75,1.37,109.23,1.21,108Z"/><path class="cls-3" d="M.7,109l.07-.52A2.67,2.67,0,0,0,.7,109Z"/><path class="cls-3" d="M21.71,77.26a22.81,22.81,0,0,0,1.74-3.62C23,74,21.17,77.26,21.71,77.26Z"/><path class="cls-3" d="M1.69,123.18c-.11-1.17-.08-2.34-.12-3.51,0,1.28,0,2.55.07,3.83Z"/><path class="cls-3" d="M2.13,139.45l0,.61c.19,1,.45,1.89.7,2.83l0-.61C2.53,141.34,2.34,140.4,2.13,139.45Z"/><path class="cls-3" d="M14.16,119.19c.33-2.11.06-3.82-.2-3.29-.27,1.36-.39,2.75-.57,4.13.7-1,.1-1.15.62-3.52C14,117.4,14.12,118.3,14.16,119.19Z"/><path class="cls-3" d="M66.25,235.69c-1-.34-5.07-3.22-5.12-3.61.58.33,2.9,1.67,1.57.62-1.22-.5-2.36-1.14-3.54-1.73-4-3.4,3.6,1.71,5.95,2.77-1.1-.74-2-1.32-2.86-1.83L60,230.45l-2.34-1.51c-.85-.56-1.75-1.29-2.86-2.14,1.28,1.05,2,1.86,2.65,2.47,0,.11-.3,0-.74-.28s-1-.76-1.73-1.3l-2.27-1.81c-.8-.63-1.55-1.34-2.27-1.94,1.71,1.7.57.91-.84-.12a5.28,5.28,0,0,0-.54-.4l-.48-.35.34.3c-.05,0,0,.12.19.39,1.23,1,2.23,2,3.17,2.83s1.76,1.62,2.55,2.27c-.3-.46-.1-.42.39-.08s1.27,1,2.21,1.67a56.65,56.65,0,0,0,5.28,3.81l2.51,1.62.93.63c.15.2-.18.13-1.66-.71,1.21.73,5.28,3.23,5,2.78,1.53,1,3.12,1.84,4.72,2.73l2.4,1.32L79,243.83a7.05,7.05,0,0,1,.78.56c.36.11.44.09.41,0a119.09,119.09,0,0,0,22.59,8.25A111.21,111.21,0,0,0,126.91,256c-2.42-.13-4.49-.65-6.95-1,1.86-.31.85-.43-.48-.57s-3-.38-2.41-.73a23.83,23.83,0,0,1,2.83.07,22.66,22.66,0,0,1,2.66.39c.54-.41-1.49-.93-1.24-1.44a22.39,22.39,0,0,0-3.7-.28,23.44,23.44,0,0,0-2.76.17,25.44,25.44,0,0,1-2.76.19,17.48,17.48,0,0,1-3.62-.53c.3-.44,2.13-.54-1.66-1.16l1,.08c-.76-.07-1.41-.16-2-.25a13.89,13.89,0,0,1-1.38-.35,13.7,13.7,0,0,1-1.69-.66,6,6,0,0,0-3.44-.45l.23-.61a40.93,40.93,0,0,1-5.38-1.13c-2-.59-4-1.3-5.41-1.76l.2,0c-8.08-2.58-4.55-1.51-13.19-5.45,1.35.54,2.77.93,4.15,1.37-2.88-1.58-3.76-1.37-5.81-2.54.19,0-.15-.58,1.85.36a107.18,107.18,0,0,1-10.31-5C63.23,233.48,66,235.29,66.25,235.69Z"/><path class="cls-3" d="M54.77,226.79c-.46-.39-1-.82-1.64-1.3Z"/><path class="cls-3" d="M130.35,256.05l-3.44-.06A32.82,32.82,0,0,0,130.35,256.05Z"/><path class="cls-3" d="M42.14,216.53c1.27,1.53-1.18-.9-1.51-1.06L43.1,218l2.58,2.44c.06-.12.66.26.63.08C44.91,219.19,43.46,217.92,42.14,216.53Z"/><path class="cls-3" d="M47,222a16.35,16.35,0,0,1,1.53,1c-1-.83-1.93-1.74-2.87-2.63C45.64,220.53,45.9,220.89,47,222Z"/><path class="cls-3" d="M50.79,216.39l.92.75,1.5,1C52.39,217.58,51.57,217,50.79,216.39Z"/><path class="cls-3" d="M65.81,227.36a38.08,38.08,0,0,0-4.32-2.59C64.17,226.38,62.94,225.81,65.81,227.36Z"/><polygon class="cls-3" points="63.83 223.34 66.46 224.67 66.24 224.5 63.83 223.34"/><path class="cls-3" d="M154.83,249.78c.52-.14,1-.26,1.53-.44C155.67,249.55,155.2,249.66,154.83,249.78Z"/><path class="cls-3" d="M127.16,253.66c7.84,1-5.11.67-2.65,1.79,1.43-.08,2.86-.18,4.29-.28l-.36.3h2.62l2.62-.15c-1.11-.48-1.91-.48-1.72-1,3.48,0,4,.09,4.38.31s.45.55,3.06.63l3.91-.45c1.3-.16,2.59-.42,3.88-.63l-.6.27a3,3,0,0,0,1.14-.36A108.34,108.34,0,0,0,173,246.15c1.07-.56,1.41-.87,1.38-1s-.41-.09-.84-.08c-.87,0-1.9.08-.44-1-5,2.28-13,4.21-13.11,5.36.13-.2.39-.61-.72-.43l-2.82,1.78,3-.54a16.73,16.73,0,0,1-3.27,1.44c-1.4.42-3,.85-4.62,1.19a30.38,30.38,0,0,1-7.26.76,16.46,16.46,0,0,0,4.52-1.52,26,26,0,0,1,6.28-1.41c-.43-.2-2-.37-.26-.93a89.12,89.12,0,0,1-13.61,2.58l-3.41.4c-1.14.14-2.3.19-3.46.3l-3.54.34Q129,253.51,127.16,253.66Z"/><path class="cls-3" d="M211.41,215.14v.11C211.5,215.09,211.51,215,211.41,215.14Z"/><path class="cls-3" d="M209.23,217.42c-.84,1.32-1.66,2.7-2.57,4,.42-.43.84-.86,1.25-1.3l1.19-1.35,2.37-2.71-.06-.79a14.29,14.29,0,0,1-2.6,3.21Z"/><path class="cls-3" d="M203.18,225.61c1.3-1.36,1.71-2.24,1.68-2.53s-.62-.12-1.45.46c2.2-2.65,1.79-.67,2.95-2.9-.41-.34-3.15,2.85-3.82,3.56Z"/><path class="cls-3" d="M180.46,241.46l.76-.85-2.33,1.17C179.42,241.69,179.93,241.57,180.46,241.46Z"/><path class="cls-3" d="M181.22,240.61l2.31-1.17a1.65,1.65,0,0,0-1-.26Z"/><path class="cls-3" d="M189.42,236.06c.94-.56,1.95-1.24,3.16-2.08C191.53,234.68,190.49,235.39,189.42,236.06Z"/><path class="cls-3" d="M186.81,237.46l.13.05,2.48-1.45C188.5,236.58,187.66,237,186.81,237.46Z"/><path class="cls-3" d="M183.53,239.44a1.76,1.76,0,0,0,1.34.21,10.35,10.35,0,0,0,3.16-1.72l-1.09-.41C185.8,238.16,184.71,238.87,183.53,239.44Z"/><polygon class="cls-3" points="83.05 232.45 85.65 233.05 85.41 232.9 82.81 232.31 83.05 232.45"/><path class="cls-3" d="M97.63,236.66c.66,0,1.17,0,1.63,0A6.77,6.77,0,0,0,97.63,236.66Z"/><path class="cls-3" d="M109.29,234.56c2.92.68-4.24.52,1.28,1,.44.52-2.29,1.11-4.88.52.29-.44,2.6,0,1.07-.66-1.83.35-2.43-.07-1.95.67-3,.14-3.45.47-5.56.56,3.6.45,11.09,1.94,15.74,1.13,2.58-.85,1.14-2.15,1.27-3.46a15.06,15.06,0,0,0-3.48-.26C111.13,234,109.47,234.15,109.29,234.56Z"/><path class="cls-3" d="M104.83,233a22.55,22.55,0,0,0-2.64-.15c.07.21.45.25,1,.23A14.62,14.62,0,0,1,104.83,233Z"/><path class="cls-3" d="M137,242.94c.26-.24,2.87-.85,2.25-1.14-1.32.24-2.63.58-4,.74A2.78,2.78,0,0,1,137,242.94Z"/><path class="cls-3" d="M133.53,242.81l1.75-.26A10.57,10.57,0,0,0,133.53,242.81Z"/><path class="cls-3" d="M137.2,243l-.21-.1C136.94,243,137,243,137.2,243Z"/><path class="cls-3" d="M198.18,229.89c.16.33,1.57-1.08,2.22-1.84l-1.08.87A10.36,10.36,0,0,0,198.18,229.89Z"/><path class="cls-3" d="M235.95,169.48l.51-1.56C236.26,168.46,236.17,168.75,235.95,169.48Z"/><path class="cls-3" d="M239.61,144.6a2.84,2.84,0,0,1,0-.33A2.41,2.41,0,0,0,239.61,144.6Z"/><path class="cls-3" d="M239.63,144.27c.11-1.09.64-4.45.62-5.68v.16l.15-2.27-.35,4.24C239.85,142.24,239.67,143.66,239.63,144.27Z"/></g></g></svg>